<svg width="375" height="1304" viewBox="0 0 375 1304" fill="none" xmlns="http://www.w3.org/2000/svg">
<path d="M1077.5 1455.98C1121.88 1456.41 1165.53 1444.68 1203.71 1422.06C1221.78 1410.58 1239.11 1397.97 1255.58 1384.31C1280.05 1364.91 1303.16 1346.6 1329.55 1337.11C1345.74 1331.32 1466.91 1299.27 1590.38 1270.51C1762.46 1230.89 1825.02 1223.69 1847 1222.94L1846.79 1216.7C1824.61 1217.45 1761.58 1224.69 1589 1264.69C1465.41 1293.32 1343.74 1325.45 1327.47 1331.28C1300.08 1341.1 1276.6 1359.75 1251.71 1379.48C1235.42 1392.94 1218.31 1405.37 1200.47 1416.69C1135.78 1455.89 1050.61 1460.43 972.231 1428.84C893.849 1397.25 835.781 1334.73 816.508 1261.61C805.977 1221.65 804.021 1178.03 802.231 1135.83C798.734 1055.21 795.695 985.574 740.333 948.988C720.477 935.878 696.251 929.884 670.609 923.516C647.049 917.689 622.74 911.654 600.095 899.584C529.081 861.792 502.815 784.751 477.382 710.207C471.846 693.933 466.601 678.575 460.731 663.55C439.544 607.819 396.919 559.08 354.669 542.307C344.541 537.868 333.575 535.666 322.519 535.853C311.463 536.04 300.578 538.61 290.606 543.389C262.301 557.082 245.026 586.717 226.752 618.099C217.991 633.775 208.36 648.948 197.905 663.549C171.96 698.119 136.757 724.638 96.3686 740.038C55.9801 755.439 12.0564 759.092 -30.3219 750.576C-72.7 742.059 -111.801 721.721 -143.102 691.913C-174.404 662.105 -196.626 624.046 -207.198 582.138C-212.458 558.807 -216.295 535.178 -218.687 511.382C-227.262 441.042 -235.337 397.173 -275.506 379.9C-308.266 365.874 -343.398 381.191 -384.067 398.921C-414.745 412.282 -446.506 426.1 -480.472 428.056C-552.194 432.218 -608.389 384.104 -662.711 337.821C-715.534 292.745 -765.402 250.416 -822.846 261.571C-843.159 265.733 -864.93 276.596 -885.992 287.251C-927.285 308.062 -974.156 331.869 -1019.2 303.9C-1060.2 278.511 -1064.69 230.022 -1068.61 187.36C-1069.73 175.29 -1070.77 163.886 -1072.56 153.189C-1082.84 91.1316 -1130.59 31.7796 -1200.27 -5.55465C-1234.78 -24.0761 -1267.62 -73.106 -1302.38 -125.008C-1337.13 -176.91 -1379.8 -240.965 -1413.06 -247.25L-1414.23 -241.131C-1383.51 -235.304 -1341.21 -172.123 -1307.25 -121.387C-1272.03 -68.819 -1238.77 -19.1232 -1202.89 0.105843C-1134.87 36.5245 -1088.34 94.0451 -1078.39 154.354C-1076.64 164.843 -1075.6 176.122 -1074.52 188.109C-1070.35 232.353 -1065.82 282.465 -1022.15 309.519C-974.323 339.153 -925.828 314.596 -883.037 292.87C-862.224 282.382 -840.995 271.602 -821.514 267.897C-767.067 257.159 -718.282 298.697 -666.665 342.816C-611.386 389.973 -554.275 438.545 -480.015 434.591C-444.841 432.635 -412.622 418.566 -381.444 404.998C-342.108 387.85 -308.099 373.033 -277.879 386.019C-240.749 401.96 -233.048 444.288 -224.764 512.381C-222.341 536.429 -218.463 560.308 -213.151 583.886C-202.369 627.013 -179.573 666.196 -147.41 696.885C-115.246 727.575 -75.0351 748.511 -31.447 757.262C12.1413 766.014 57.318 762.222 98.8368 746.326C140.356 730.43 176.513 703.084 203.108 667.462C213.692 652.773 223.421 637.486 232.247 621.678C250.063 591.128 266.88 562.285 293.478 549.424C302.661 544.954 312.702 542.524 322.912 542.301C333.123 542.078 343.26 544.068 352.629 548.134C393.339 564.324 434.549 611.606 455.154 665.839C460.856 680.739 466.059 696.056 471.596 712.246C497.404 787.956 524.086 866.245 597.264 905.161C620.617 917.648 645.342 923.683 669.236 929.593C694.211 935.836 718.063 941.705 737.003 954.233C789.701 989.07 792.698 1057.25 796.112 1136.16C797.985 1178.65 799.9 1222.65 810.597 1263.23C830.37 1338.15 889.978 1402.37 970.025 1434.67C1004.16 1448.58 1040.64 1455.81 1077.5 1455.98Z" fill="#F7FBFF"/>
<path d="M1077.46 1477.79C1125.84 1478.24 1173.42 1465.43 1215.03 1440.74C1233.89 1428.84 1251.96 1415.74 1269.15 1401.54C1292.17 1383.27 1313.94 1366.03 1336.92 1357.75C1350.24 1353.01 1467.66 1321.62 1595.33 1292.07C1726.99 1261.56 1792.59 1250.45 1824.27 1246.79L1823.77 1242.63C1791.8 1246.46 1726.03 1257.4 1594.16 1287.95C1466.37 1317.59 1348.57 1349.01 1335.33 1353.8C1311.65 1362.12 1289.55 1379.73 1266.36 1398.21C1249.33 1412.34 1231.39 1425.33 1212.66 1437.12C1141.61 1480.24 1048.28 1485.45 962.907 1451.02C877.532 1416.6 814.177 1348.1 792.99 1267.89C781.792 1225.44 779.836 1180.49 777.963 1137.03C774.591 1059.91 771.927 998.976 726.763 969.133C710.362 958.27 688.092 952.776 664.324 946.907C639.348 940.706 613.54 934.421 588.315 920.894C508.934 878.607 479.838 793.325 454.196 718.115C448.701 702.049 443.54 686.899 437.962 672.332C419.272 623.219 381.226 579.017 345.428 564.782C338.384 561.58 330.724 559.958 322.987 560.03C315.249 560.102 307.621 561.866 300.638 565.198C278.909 575.687 263.424 602.283 246.982 630.419C237.801 646.894 227.669 662.82 216.637 678.117C187.961 716.174 149.107 745.347 104.558 762.269C60.0099 779.19 11.5837 783.169 -35.1301 773.747C-81.8438 764.326 -124.941 741.887 -159.445 709.021C-193.95 676.156 -218.456 634.203 -230.134 588.007C-235.714 563.753 -239.787 539.177 -242.331 514.42C-250.864 444.372 -258.648 413.322 -284.831 402.043C-308.058 392.054 -337.321 404.831 -374.368 420.939C-407.003 435.173 -440.678 449.866 -479.057 451.988C-560.394 456.483 -622.875 403.167 -678.029 356.259C-728.521 313.223 -772.062 276.138 -818.1 285.212C-835.167 288.583 -855.564 298.864 -875.045 308.769C-917.336 330.163 -975.197 359.464 -1031.47 324.586C-1082.63 292.87 -1087.88 235.558 -1092.12 189.774C-1093.21 177.954 -1094.21 167.049 -1095.83 157.309C-1104.9 102.536 -1148.07 49.5936 -1211.26 15.7971C-1251.05 -5.51304 -1285.48 -56.957 -1321.94 -111.439C-1356.86 -163.549 -1395.91 -219.655 -1417.68 -223.609L-1418.47 -219.447C-1396.74 -215.284 -1348.66 -143.529 -1325.56 -109.025C-1288.81 -54.1267 -1254.09 -2.22495 -1213.17 19.5846C-1151.11 52.8817 -1108.77 104.617 -1099.87 158.142C-1098.28 167.756 -1097.29 178.578 -1096.24 190.065C-1092.08 237.181 -1086.55 295.534 -1033.81 328.29C-975.53 364.376 -916.462 334.491 -873.296 312.64C-853.94 302.859 -833.918 292.745 -817.434 289.457C-773.269 280.758 -730.519 317.219 -680.985 359.464C-625.081 407.121 -561.851 461.062 -478.932 456.442C-439.846 454.278 -405.795 439.419 -372.869 425.059C-336.696 409.327 -308.183 396.882 -286.621 406.163C-262.311 416.569 -254.902 446.827 -246.618 515.086C-244 539.951 -239.885 564.636 -234.297 589.006C-222.021 635.883 -196.951 678.423 -161.887 711.873C-126.823 745.323 -83.1479 768.365 -35.7411 778.424C-19.7876 781.613 -3.55771 783.216 12.7115 783.211C92.8413 783.211 172.222 745.086 220.55 680.406C231.666 664.985 241.882 648.934 251.145 632.334C267.254 604.739 282.447 578.684 303.011 568.736C309.505 565.646 316.599 564.018 323.791 563.968C330.984 563.917 338.099 565.446 344.637 568.445C379.436 582.263 416.525 625.508 434.84 673.58C440.376 688.189 445.538 703.298 450.991 719.364C476.924 795.323 506.27 881.437 587.108 924.474C612.791 938.167 638.849 944.618 664.074 950.861C687.301 956.605 709.238 962.058 725.014 972.505C768.472 1001.22 771.053 1061.2 774.383 1137.16C776.256 1180.82 778.254 1225.98 789.535 1268.85C811.097 1350.51 875.534 1420.1 961.949 1454.98C998.642 1469.89 1037.85 1477.64 1077.46 1477.79Z" fill="#F7FBFF"/>
<path d="M1077.46 1500.85C1130.04 1501.3 1181.74 1487.34 1226.94 1460.47C1246.57 1448.12 1265.38 1434.51 1283.26 1419.73C1304.86 1402.58 1325.18 1386.43 1344.66 1379.48C1356.19 1375.32 1472.41 1344.18 1600.49 1314.51C1687.07 1294.45 1754.88 1280.54 1802.04 1273.22L1801.38 1269.06C1754.13 1276.42 1686.24 1290.32 1599.53 1310.43C1471.33 1340.15 1354.86 1371.36 1343.24 1375.52C1323.14 1382.72 1302.57 1399.04 1280.8 1416.31C1263.01 1431.02 1244.3 1444.57 1224.78 1456.89C1147.52 1503.72 1046.57 1509.54 954.706 1472.42C862.838 1435.29 794.238 1361.04 771.219 1273.72C759.397 1228.89 757.399 1182.69 755.443 1138.07C752.238 1064.65 749.948 1011.63 714.483 988.237C701.412 979.58 680.974 974.544 659.329 969.175C633.021 962.64 605.839 955.898 578.075 941.122C490.66 894.631 458.775 800.858 433.05 725.524C427.597 709.583 422.519 694.641 417.107 680.406C400.79 637.578 367.156 597.871 337.518 586.009C324.448 580.807 316.705 583.137 311.128 585.759C295.684 593.21 281.24 617.974 267.295 641.948C257.685 659.198 247.081 675.875 235.535 691.894C184.668 759.945 99.21 802.232 12.5031 802.19C-4.95407 802.212 -22.3702 800.498 -39.4878 797.071C-141.596 776.551 -227.221 694.89 -252.488 593.834C-258.254 568.65 -262.425 543.127 -264.975 517.417C-273.009 451.447 -279.752 429.471 -293.78 423.436C-307.808 417.401 -334.407 428.93 -365.044 442.291C-399.635 457.358 -435.225 472.882 -477.684 475.213C-481.305 475.421 -484.927 475.504 -488.507 475.504C-573.673 475.504 -639.775 419.108 -692.932 373.824C-738.72 334.741 -778.348 300.986 -813.647 307.937C-827.675 310.684 -846.49 320.423 -864.722 329.455C-909.179 351.931 -976.321 385.935 -1043.71 344.314C-1104.53 306.605 -1110.65 240.261 -1115.1 191.855C-1116.1 180.742 -1117.1 170.295 -1118.56 161.305C-1126.34 113.191 -1165.09 66.4086 -1222.08 35.7754C-1266.91 11.7599 -1302.88 -41.9732 -1340.96 -98.9112C-1383.34 -162.176 -1409.86 -195.681 -1422.05 -201.3L-1423.8 -197.512C-1416.02 -193.933 -1395.95 -173.497 -1344.42 -96.5804C-1306.04 -39.143 -1269.78 14.9647 -1224.04 39.5213C-1168.18 69.447 -1130.21 115.106 -1122.51 161.68C-1121.05 170.545 -1120.1 180.95 -1119.1 191.938C-1114.56 241.26 -1108.32 308.77 -1045.71 347.561C-976.529 390.389 -908.346 355.885 -862.89 332.868C-844.866 323.753 -826.301 314.388 -812.939 311.725C-779.638 305.148 -740.802 338.321 -695.804 376.696C-642.148 422.479 -575.38 479.375 -488.673 479.375C-485.01 479.375 -481.305 479.375 -477.642 479.084C-434.435 476.67 -398.553 461.02 -363.67 445.787C-333.783 432.759 -308.058 421.522 -295.612 426.891C-283.166 432.26 -276.922 454.944 -269.305 517.542C-266.72 543.426 -262.549 569.127 -256.817 594.5C-231.134 697.055 -144.219 779.964 -40.3619 800.775C-22.9834 804.25 -5.30294 805.993 12.4198 805.978C100.417 805.978 187.249 763.108 238.782 694.016C250.393 677.998 261.067 661.322 270.75 644.071C284.445 620.596 298.557 596.373 312.876 589.464C317.496 587.216 324.323 585.302 335.895 589.838C364.7 601.284 397.21 639.784 413.153 681.863C418.523 696.014 423.601 710.998 428.971 726.648C454.987 802.856 487.247 897.295 576.035 944.743C604.257 959.768 631.689 966.594 658.246 973.171C679.517 978.456 699.622 983.409 712.11 991.692C745.786 1013.96 748.075 1066.07 751.197 1138.24C753.153 1183.11 755.36 1229.52 767.098 1274.76C790.492 1363.37 860.007 1438.7 953.083 1476.29C992.582 1492.38 1034.81 1500.72 1077.46 1500.85Z" fill="#F7FBFF"/>
<path d="M91.5089 1156.6C122.603 1156.6 156.487 1148.27 197.072 1130.33C211.267 1124.13 225.42 1117.22 239.115 1110.56C260.801 1099.55 283.03 1089.65 305.716 1080.89C357.124 1061.95 414.443 1054.67 460.481 1048.8C480.462 1046.26 501.15 1043.64 519.465 1034.31C535.741 1025.99 553.64 1009.13 555.014 986.365C556.096 968.259 546.272 952.235 537.822 941.955C531.504 934.603 524.734 927.653 517.55 921.144C513.18 916.982 508.643 912.82 504.438 908.366C468.598 870.907 451.407 820.212 434.798 771.016C421.27 731.184 407.283 690.021 383.39 655.225C372.651 639.617 362.286 629.295 350.797 622.802C335.895 614.478 318.454 613.105 305.3 619.431C289.274 627.089 281.074 643.571 273.165 659.512C272.166 661.51 271.208 663.674 270.209 665.381C255.338 694.281 234.863 719.933 209.976 740.84C204.644 745.091 199.086 749.051 193.326 752.702C174.345 765.189 152.824 779.34 155.655 804.646C156.757 811.999 158.598 819.222 161.149 826.206C163.48 832.581 165.222 839.157 166.352 845.851C166.81 849.139 166.935 852.552 167.102 855.882C166.872 863.698 168.408 871.466 171.597 878.607C177.467 889.553 189.122 894.298 200.402 898.918C209.477 902.622 218.843 906.41 224.962 913.444C237.449 927.47 232.246 950.362 219.842 962.89C208.686 974.128 191.37 980.829 168.351 982.785C160.941 983.409 153.282 983.576 145.914 983.742C134.058 983.749 122.218 984.625 110.49 986.364C89.0493 990.424 69.0466 1000.03 52.475 1014.23C35.9033 1028.42 23.3416 1046.71 16.0412 1067.28C11.8786 1079.76 6.42556 1104.07 18.2889 1124.51C28.8203 1142.65 51.5897 1154.14 80.936 1156.01C84.2661 1156.47 87.8875 1156.6 91.5089 1156.6ZM323.49 619.806C332.259 619.933 340.852 622.282 348.466 626.632C359.372 632.833 369.279 642.697 379.644 657.806C403.246 692.102 417.107 733.016 430.552 772.556C447.203 822.044 464.686 873.155 501.316 911.28C505.479 915.733 510.183 920.062 514.595 924.224C521.642 930.605 528.287 937.416 534.492 944.618C542.443 954.274 551.767 969.341 550.726 986.24C549.478 1007.26 532.702 1022.99 517.426 1030.73C499.735 1039.72 479.421 1042.3 459.774 1044.8C413.527 1050.67 355.959 1057.99 304.134 1077.1C281.366 1085.92 259.055 1095.88 237.283 1106.94C223.63 1113.6 209.519 1120.47 195.407 1126.67C150.743 1146.23 114.362 1154.35 80.9776 1152.23C67.7821 1151.35 35.6469 1146.81 21.6606 1122.76C10.6297 1103.74 15.7498 1080.89 19.7875 1068.94C26.8274 1049.08 38.9546 1031.41 54.9583 1017.71C70.962 1004 90.2822 994.726 110.99 990.818C122.525 989.107 134.17 988.245 145.831 988.237C153.24 988.237 160.941 987.904 168.517 987.238C192.535 985.199 210.726 978.123 222.631 966.136C236.326 952.277 241.737 926.804 227.917 911.03C221.174 903.288 211.267 899.251 201.818 895.38C190.745 890.885 180.256 886.598 175.094 876.984C172.166 870.446 170.744 863.334 170.931 856.173C170.931 852.76 170.598 849.222 170.14 845.768C168.98 838.819 167.183 831.992 164.771 825.373C162.313 818.632 160.542 811.66 159.484 804.563C156.903 781.754 176.384 768.935 195.283 756.532C201.196 752.82 206.894 748.777 212.349 744.42C237.658 723.088 258.46 696.926 273.539 667.462C274.538 665.547 275.537 663.55 276.495 661.593C284.112 646.277 292.021 630.461 306.715 623.385C311.967 620.949 317.701 619.725 323.49 619.806Z" fill="#F7FBFF"/>
<path d="M126.267 1130.87C129.326 1130.88 132.383 1130.71 135.424 1130.37C160.816 1127.38 183.877 1115.22 206.189 1103.44L217.178 1097.74C287.697 1061.61 364.702 1039.88 443.706 1033.81L449.409 1033.4C467.391 1032.15 485.956 1030.82 502.357 1022.78C520.298 1014.04 535.991 994.148 531.287 973.087C527.791 957.521 514.887 947.282 502.399 937.376C499.901 935.378 497.404 933.422 495.031 931.424C459.857 901.998 441.666 858.42 429.72 823.708C425.557 811.763 421.769 799.401 418.065 787.456C409.198 758.987 400.041 729.519 386.262 702.465C380.06 690.229 369.987 672.581 354.294 660.386C343.596 652.062 325.53 643.405 309.837 646.485C297.349 648.899 292.771 658.971 288.4 668.253L287.026 671.249C273.655 700.625 252.146 725.555 225.045 743.088C222.215 744.878 219.259 746.626 216.304 748.374C204.149 755.574 191.578 763.024 184.085 775.303C175.136 789.995 175.76 807.434 177.092 827.08C178.091 840.357 179.298 856.88 188.539 869.242C194.522 876.355 201.725 882.345 209.81 886.931C214.934 890.055 219.805 893.576 224.379 897.461C229.779 902.787 234.071 909.13 237.007 916.123C239.943 923.117 241.464 930.622 241.483 938.207C241.503 945.791 240.02 953.304 237.12 960.313C234.22 967.321 229.96 973.685 224.587 979.039C207.521 994.522 183.211 997.602 159.692 1000.6C153.698 1001.35 147.496 1002.14 141.543 1003.1C115.111 1007.26 95.2137 1016.04 80.7279 1029.44C62.6623 1046.09 54.9199 1071.06 61.4968 1091.29C70.155 1117.93 99.6261 1130.87 126.267 1130.87ZM316.664 649.981C329.443 649.981 343.096 656.932 351.755 663.633C363.202 672.581 372.984 685.484 382.558 704.338C396.169 731.101 405.285 760.402 414.11 788.705C417.815 800.65 421.644 813.053 425.807 825.082C437.92 860.293 456.402 904.537 492.408 934.629C494.823 936.627 497.32 938.791 499.86 940.622C511.765 950.07 524.086 959.852 527.249 973.919C531.412 992.649 516.635 1011.13 500.567 1018.95C484.5 1026.78 466.725 1027.9 449.159 1029.15L443.456 1029.57C363.866 1035.7 286.294 1057.62 215.263 1094.04L204.274 1099.78C182.295 1111.35 159.526 1123.34 134.967 1126.21C107.951 1129.33 74.4425 1117.89 65.4513 1090C59.3739 1071.23 66.6583 1048.13 83.5585 1032.48C97.4199 1019.7 116.609 1011.42 142.251 1007.22C148.12 1006.26 154.239 1005.47 160.192 1004.72C184.376 1001.64 209.352 998.476 227.376 982.119C233.182 976.377 237.788 969.537 240.925 961.998C244.062 954.459 245.667 946.372 245.648 938.206C245.628 930.041 243.984 921.961 240.812 914.437C237.639 906.913 233.001 900.096 227.168 894.381C222.441 890.324 217.387 886.662 212.058 883.435C204.395 879.125 197.559 873.488 191.869 866.786C183.544 855.34 182.17 839.483 181.255 826.747C179.839 807.851 179.34 791.119 187.665 777.467C194.575 766.063 206.688 758.904 218.427 751.953C221.424 750.205 224.379 748.457 227.251 746.626C255.023 728.67 277.067 703.133 290.773 673.039L292.188 670.001C296.35 660.636 300.18 652.603 310.628 650.564C312.615 650.162 314.637 649.967 316.664 649.981Z" fill="#F7FBFF"/>
<path d="M148.662 1103.32C151.332 1103.32 154.001 1103.17 156.654 1102.86C178.175 1100.28 197.697 1089.83 216.554 1079.68L225.961 1074.68C292.606 1039.88 366.412 1021.01 441.583 1019.54L445.247 1019.54C456.354 1019.9 467.457 1018.66 478.214 1015.87C492.076 1011.71 502.233 1002.31 505.396 990.901C510.766 971.714 496.488 954.482 481.42 938.5C442.374 897.087 414.818 853.301 399.583 808.392C397.71 802.814 395.961 797.195 394.255 791.743C390.021 775.731 383.901 760.279 376.023 745.71C365.408 727.854 345.303 709.25 320.369 710.706C306.299 711.539 293.603 718.781 282.406 725.149L228.292 756.074C191.162 777.259 177.259 806.976 190.163 837.651C196.823 853.551 209.228 865.995 221.257 878.024L221.965 878.773C234.994 891.842 246.233 903.746 251.728 919.187C261.01 945.076 249.23 977.915 224.921 994.106C211.85 1002.72 196.157 1006.84 180.964 1010.75L171.889 1013.21C154.073 1018.12 134.134 1025.28 121.48 1041.05C108.826 1056.83 106.869 1082.38 122.979 1095.58C130.409 1101.01 139.469 1103.74 148.662 1103.32ZM323.033 714.66C344.97 714.66 363.244 732.183 372.443 747.666C380.147 761.947 386.128 777.092 390.259 792.784C392.007 798.486 393.755 804.146 395.628 809.765C411.113 855.257 438.961 899.542 478.381 941.372C492.659 956.522 506.187 972.712 501.4 989.819C498.111 1001.51 486.623 1008.88 477.007 1011.88C466.62 1014.51 455.915 1015.67 445.205 1015.33L441.542 1015.33C365.718 1016.8 291.269 1035.84 224.046 1070.94L214.597 1075.97C196.074 1085.92 176.926 1096.2 156.321 1098.66C147.288 1099.74 134.675 1099.45 125.601 1092.04C111.407 1080.43 113.738 1057.08 124.727 1043.39C136.673 1028.53 155.821 1021.66 173.013 1016.91L182.046 1014.5C197.531 1010.34 213.557 1006.18 227.21 997.227C253.517 979.913 265.714 945.658 255.641 917.564C249.855 901.498 238.324 889.054 224.921 875.61L224.171 874.902C212.474 863.123 200.361 850.97 193.992 835.862C176.967 795.322 213.765 768.935 230.374 759.486L284.487 728.562C295.268 722.402 307.506 715.451 320.619 714.66L323.033 714.66Z" fill="#F7FBFF"/>
<path d="M216.054 1060.7C216.97 1060.7 217.844 1060.7 218.718 1060.7C227.26 1059.36 235.484 1056.47 242.986 1052.17L244.651 1051.34C291.706 1028.23 342.793 1014.46 395.087 1010.8L401.706 1010.38C413.414 1010.07 425.054 1008.5 436.422 1005.68C451.99 1001.18 464.061 991.9 469.723 980.288C480.795 957.105 465.56 931.508 458.317 921.56C454.154 915.817 449.576 910.322 445.08 904.912C437.443 895.843 430.34 886.337 423.809 876.443L417.815 866.662L380.934 798.861C374.274 786.79 367.364 774.346 356.833 764.731C341.057 750.33 316.831 743.005 288.816 744.17C271.35 744.392 254.202 748.878 238.865 757.239C231.147 761.484 224.387 767.276 219.008 774.251C213.63 781.226 209.747 789.235 207.604 797.778C204.024 814.011 208.062 832.865 219.218 852.386C224.34 860.987 229.898 869.322 235.868 877.358C240.78 884.226 245.858 891.301 250.271 898.585C261.593 917.315 266.213 934.546 264.09 949.863C261.177 970.673 246.15 989.528 218.302 1007.76L216.345 1009.01C209.682 1012.82 203.68 1017.68 198.571 1023.41C195.571 1026.78 193.556 1030.91 192.748 1035.36C191.941 1039.8 192.371 1044.38 193.992 1048.59C197.822 1057.08 207.646 1060.7 216.054 1060.7ZM427.555 888.305C432.093 894.881 436.796 901.499 441.875 907.534C446.287 912.778 450.866 918.272 454.904 923.891C461.605 933.214 476.05 957.188 465.935 978.373C460.856 988.945 449.7 997.353 435.298 1001.56C424.227 1004.28 412.895 1005.8 401.498 1006.09L394.838 1006.51C342.004 1010.22 290.392 1024.14 242.861 1047.51L241.154 1048.34C234.119 1052.47 226.389 1055.29 218.343 1056.66C210.851 1057.37 201.194 1054.62 197.53 1046.97C193.867 1039.31 197.53 1031.15 201.693 1026.15C206.487 1020.79 212.108 1016.22 218.343 1012.63L220.3 1011.38C249.438 992.483 264.965 972.588 268.086 950.57C270.376 934.296 265.506 916.108 253.684 896.463C249.188 889.012 244.068 881.853 239.115 874.944C233.495 867.036 227.668 858.837 222.797 850.346C215.388 837.36 207.437 817.84 211.6 798.694C213.626 790.709 217.278 783.227 222.328 776.718C227.377 770.208 233.716 764.81 240.946 760.86C255.648 752.863 272.081 748.577 288.816 748.374C315.79 747.25 338.767 754.201 353.836 767.853C363.868 777.009 370.486 789.163 377.147 800.9L422.102 880.688L427.555 888.305Z" fill="#F7FBFF"/>
<path d="M300.888 1009.05C307.417 1008.9 313.926 1008.28 320.369 1007.22L369.279 1000.22C380.393 998.643 392.964 996.811 403.413 990.318C417.69 981.37 427.014 963.598 428.388 942.704C430.012 917.107 420.604 892.758 411.238 871.947C400.408 847.344 386.655 824.133 370.278 802.814L367.656 799.443C362.702 792.867 357.083 785.458 349.382 782.212C338.704 778.476 327.316 777.224 316.081 778.549C301.852 779.745 288.254 784.956 276.87 793.575C254.517 810.764 244.235 841.938 252.394 867.785C255.436 876.273 259.356 884.419 264.091 892.092C268.767 899.555 272.606 907.511 275.538 915.816C279.662 929.374 278.866 943.952 273.29 956.98C272.402 958.894 271.486 960.809 270.543 962.723C266.874 968.748 264.811 975.612 264.548 982.66C265.09 995.438 276.495 1004.39 286.86 1007.34C291.438 1008.54 296.156 1009.11 300.888 1009.05ZM325.447 782.212C333.069 782.022 340.657 783.293 347.8 785.958C354.46 788.788 359.747 795.739 364.451 801.857C365.366 803.064 366.241 804.23 367.115 805.312C383.311 826.361 396.897 849.295 407.575 873.612C416.733 893.799 425.932 917.773 424.226 942.454C423.018 961.974 414.402 978.54 401.248 986.781C391.549 992.816 379.436 994.564 368.738 996.104L319.703 1003.1C309.629 1004.51 298.182 1006.18 287.859 1003.1C278.909 1000.6 269.044 992.982 268.586 982.286C268.926 975.941 270.828 969.779 274.122 964.347C275.121 962.391 276.079 960.434 276.953 958.436C282.956 944.509 283.812 928.901 279.367 914.401C276.358 905.793 272.407 897.544 267.587 889.803C262.985 882.391 259.189 874.507 256.265 866.287C248.606 842.105 258.305 812.804 279.284 796.655C290.058 788.522 302.919 783.615 316.373 782.503C318.787 782.42 321.951 782.212 325.447 782.212Z" fill="#F7FBFF"/>
<path d="M367.864 986.406C376.284 986.795 384.609 984.491 391.632 979.83C400.332 973.587 405.91 962.848 408.616 946.991C413.712 915.804 407.512 883.822 391.133 856.797L387.345 848.681C384.576 843.485 381.087 838.707 376.98 834.488C369.324 824.847 358.702 818.001 346.759 815.009C338.102 813.615 329.276 813.615 320.618 815.009C317.122 815.426 313.542 815.842 310.045 816.05L306.174 816.258C300.015 816.099 293.887 817.175 288.15 819.421C276.079 825.165 271.5 839.441 272.332 851.095C273.165 862.749 278.202 873.321 283.113 883.643L283.696 884.933C288.816 895.713 293.395 906.327 293.27 917.439C293.136 920.942 292.775 924.431 292.188 927.886C291.221 932.861 290.899 937.939 291.23 942.995C292.23 949.36 294.704 955.404 298.455 960.643C302.206 965.883 307.13 970.173 312.834 973.17C323.909 978.883 335.898 982.615 348.258 984.2C354.717 985.5 361.277 986.238 367.864 986.406ZM394.921 871.448C406.264 894.688 409.643 921.015 404.536 946.366C401.997 961.059 397.002 970.964 389.218 976.5C378.437 984.242 363.535 982.91 349.007 980.329C337.116 978.833 325.579 975.269 314.916 969.799C309.776 967.147 305.332 963.324 301.941 958.639C298.55 953.954 296.307 948.539 295.393 942.828C295.083 938.119 295.391 933.39 296.309 928.76C296.898 925.109 297.273 921.426 297.433 917.731C297.433 905.744 292.812 894.631 287.484 883.393L286.86 882.103C282.156 872.155 277.286 861.875 276.495 851.054C275.787 841.148 279.7 828.287 289.94 823.459C295.163 821.43 300.74 820.467 306.341 820.628L310.295 820.628C313.917 820.42 317.538 819.962 321.076 819.588C329.332 818.149 337.765 818.051 346.052 819.296C357.083 822.133 366.88 828.507 373.941 837.443C381.067 846.591 387.154 856.502 392.09 866.994L394.921 871.448Z" fill="#F7FBFF"/>
<path d="M358.54 960.06C365.293 960.135 371.906 958.13 377.48 954.316C388.968 946.283 393.464 932.631 395.212 922.6C397.116 911.646 396.791 900.42 394.255 889.595C389.759 869.866 374.816 844.477 352.629 835.487C346.229 832.814 339.265 831.772 332.363 832.454C325.461 833.137 318.836 835.524 313.084 839.399C304.093 845.06 295.768 856.381 298.848 867.91C300.47 872.801 303.125 877.287 306.632 881.062C308.006 882.769 309.421 884.517 310.795 886.307C316.414 894.631 318.454 905.286 320.369 915.442C322.783 928.136 325.239 941.205 334.48 950.528C340.928 956.756 349.576 960.182 358.54 960.06ZM336.686 836.195C341.648 836.227 346.555 837.231 351.13 839.15C371.943 847.765 385.93 871.822 390.217 890.552C392.595 900.835 392.906 911.488 391.133 921.893C388.843 934.962 383.141 945.284 375.107 951.028C369.367 954.816 362.511 956.546 355.661 955.933C348.811 955.321 342.371 952.403 337.394 947.656C329.069 939.332 326.821 927.345 324.407 914.734C322.408 904.037 320.244 893.008 314.208 883.934C312.918 882.02 311.419 880.188 310.046 878.399C306.916 875.077 304.52 871.135 303.011 866.828C300.513 857.297 307.714 847.765 315.499 842.896C321.779 838.691 329.13 836.367 336.686 836.195Z" fill="#F7FBFF"/>
<path d="M356.792 917.855C360.662 917.746 364.442 916.667 367.787 914.719C371.133 912.77 373.936 910.013 375.94 906.701C378.068 902.875 379.421 898.667 379.921 894.317C380.421 889.968 380.058 885.563 378.853 881.354C376.899 872.748 371.865 865.154 364.7 860.002C360.914 857.159 356.405 855.437 351.688 855.032C346.97 854.627 342.233 855.556 338.018 857.713C334.206 859.981 331.117 863.287 329.112 867.244C327.107 871.202 326.269 875.648 326.696 880.063C327.49 888.947 330.796 897.421 336.228 904.495C339.967 910.737 345.907 915.355 352.879 917.439C354.163 917.725 355.476 917.864 356.792 917.855ZM349.049 859.003C353.831 859.107 358.471 860.644 362.369 863.415C368.693 868.002 373.132 874.733 374.857 882.352C375.926 886.03 376.259 889.882 375.838 893.689C375.417 897.496 374.249 901.182 372.401 904.537C370.569 907.708 367.817 910.25 364.51 911.825C361.203 913.4 357.496 913.936 353.878 913.36C347.9 911.511 342.835 907.486 339.683 902.081C334.69 895.665 331.641 887.951 330.9 879.855C330.506 876.217 331.158 872.541 332.78 869.26C334.402 865.979 336.927 863.229 340.058 861.334C342.847 859.789 345.986 858.986 349.174 859.003L349.049 859.003Z" fill="#F7FBFF"/>
<path d="M356.333 902.373C363.16 902.373 368.238 895.713 369.071 889.345C369.386 882.456 366.962 875.723 362.327 870.616C360.957 868.956 359.232 867.624 357.281 866.717C355.329 865.81 353.199 865.35 351.047 865.371C349.054 865.327 347.087 865.831 345.362 866.83C343.636 867.828 342.219 869.282 341.265 871.032C337.685 877.483 340.224 887.68 343.138 892.592C346.676 898.71 351.047 902.081 355.626 902.331L356.333 902.373ZM351.588 869.492C353.067 869.594 354.509 869.997 355.826 870.677C357.144 871.357 358.308 872.299 359.247 873.446C363.092 877.615 365.127 883.138 364.908 888.804C364.325 893.549 360.537 898.46 356 898.211C351.463 897.961 348.716 894.048 346.759 890.511C343.929 885.599 342.597 877.4 344.886 873.03C345.516 871.909 346.445 870.984 347.57 870.36C348.694 869.735 349.97 869.435 351.255 869.492L351.588 869.492Z" fill="#F7FBFF"/>
<path d="M221.465 2254.48C325.53 2224.02 382.974 2119.05 402.205 2030.98C418.855 1954.18 415.692 1874.06 412.528 1796.56C411.654 1775.34 410.78 1753.4 410.322 1731.89C408.407 1644.23 413.569 1532.35 470.763 1444.45C511.782 1381.86 575.021 1337.16 647.715 1319.38C651.878 1318.42 655.707 1317.5 659.787 1316.63C682.389 1311.59 705.575 1306.39 722.225 1289.91C743.038 1268.68 745.286 1236.22 745.619 1204.75C746.119 1161.51 746.66 1112.52 728.969 1069.36C712.818 1029.61 674.855 989.694 625.945 989.694L625.154 989.694C601.802 989.902 579.365 999.475 559.51 1007.97L222.714 1151.73C186.833 1167 149.785 1182.86 110.324 1185.23C76.2325 1187.23 31.2348 1176.91 7.46634 1142.24C-16.3021 1107.57 -10.8074 1055.46 19.5795 1020.24C47.7187 987.571 93.9234 968.842 146.414 968.842L147.621 968.842C153.284 968.981 158.925 968.093 164.271 966.22C169.111 964.737 173.494 962.05 177.011 958.41C180.528 954.77 183.062 950.296 184.377 945.409C188.831 928.095 178.507 906.035 166.269 891.801L165.811 891.26C146.044 868.51 121.868 850.005 94.7445 836.863C67.6212 823.722 38.1143 816.216 8.00751 814.801C-93.9344 810.015 -170.11 824.915 -231.799 861.709C-272.426 885.932 -306.393 919.978 -339.277 953.275C-371.038 985.241 -403.923 1018.33 -442.593 1042.14C-529.217 1095.5 -651.056 1103.57 -776.891 1064.28C-858.02 1038.93 -934.529 998.143 -1008.58 958.728C-1035.18 944.535 -1062.69 929.843 -1090.08 916.108C-1179.96 870.948 -1299.01 820.129 -1423.09 827.954C-1510.26 833.489 -1594.51 869.034 -1666.69 930.717C-1735.95 989.841 -1786.77 1067.6 -1813.13 1154.76L-1808.96 1155.97C-1756.97 979.205 -1594.51 843.02 -1422.68 832.116C-1299.75 824.333 -1181.25 874.902 -1092 919.812C-1064.69 933.547 -1037.18 948.198 -1010.58 962.39C-936.36 1001.93 -859.643 1042.8 -778.181 1068.23C-651.181 1107.9 -528.093 1099.66 -440.47 1045.67C-401.342 1021.58 -368.333 988.362 -336.406 956.231C-303.729 923.35 -269.804 889.345 -229.76 865.371C-168.819 828.994 -93.3099 814.302 7.71625 819.047C37.2505 820.425 66.199 827.774 92.8134 840.65C119.428 853.527 143.156 871.664 162.565 893.965L163.023 894.506C174.553 907.908 184.335 928.511 180.256 944.452C179.089 948.684 176.871 952.552 173.807 955.696C170.742 958.84 166.932 961.157 162.731 962.432C157.738 964.136 152.478 964.926 147.205 964.763C93.0909 964.43 45.3877 983.826 16.2912 1017.58C-15.2613 1054.21 -20.5894 1108.81 3.80338 1144.65C28.1961 1180.49 75.1085 1191.56 110.324 1189.43C150.66 1187.02 188.081 1171.08 224.254 1155.64L561.133 1011.8C580.572 1003.47 602.759 994.064 625.154 993.856C672.316 993.565 709.363 1032.27 725.056 1070.94C742.331 1113.31 741.706 1161.88 741.29 1204.71C740.957 1235.3 738.959 1266.85 719.103 1286.95C703.66 1302.6 680.849 1307.76 658.829 1312.55L646.716 1315.34C572.994 1333.38 508.854 1378.7 467.225 1442.16C409.448 1531.02 404.203 1643.73 406.118 1731.97C406.576 1753.53 407.45 1775.5 408.324 1796.73C411.488 1873.98 414.735 1953.81 398.084 2030.1C379.103 2117.01 322.45 2220.56 220.258 2250.69L221.465 2254.48Z" fill="#F7FBFF"/>
<path d="M150.743 863.082C151.717 863.085 152.68 862.887 153.573 862.499C155.425 861.331 156.838 859.583 157.592 857.527C158.345 855.471 158.395 853.224 157.736 851.136C156.647 846.734 154.892 842.523 152.533 838.65C151.492 836.777 150.493 834.904 149.619 832.948C145.411 823.493 144.876 812.809 148.12 802.981L148.745 801.149C149.705 798.823 150.322 796.369 150.576 793.866C150.772 792.178 150.517 790.468 149.837 788.911C149.157 787.353 148.076 786.004 146.705 785C145.323 784.133 143.735 783.649 142.103 783.597C140.472 783.546 138.857 783.93 137.423 784.709C134.82 786.088 132.424 787.825 130.305 789.87C128.811 791.196 127.24 792.433 125.601 793.574C118.262 797.235 110.234 799.305 102.04 799.651C99.2515 799.984 96.5043 800.317 93.9235 800.733C89.4402 801.186 85.1084 802.606 81.2275 804.895C79.0533 806.214 77.344 808.177 76.3369 810.512C75.3298 812.846 75.0751 815.437 75.6081 817.923C77.5229 824.457 85.1405 826.455 90.1772 827.745C109.46 832.876 126.957 843.215 140.753 857.629C143.267 860.652 146.84 862.602 150.743 863.082ZM142.168 787.581C143.012 787.571 143.84 787.817 144.541 788.288C145.302 788.887 145.895 789.674 146.26 790.572C146.625 791.47 146.75 792.447 146.622 793.408C146.346 795.522 145.8 797.592 144.998 799.568C144.749 800.192 144.541 800.858 144.332 801.482C140.758 812.308 141.352 824.077 145.997 834.488C146.913 836.527 147.954 838.65 149.036 840.44C151.178 844.018 152.79 847.887 153.823 851.927C154.364 854.633 153.823 857.796 151.867 858.67C149.91 859.544 147.454 858.212 143.916 854.508C129.652 839.482 111.471 828.742 91.4259 823.5C85.9313 822.043 80.9362 820.42 79.7707 816.508C79.5368 814.885 79.7872 813.229 80.4907 811.748C81.1942 810.267 82.3194 809.027 83.7251 808.183C87.1222 806.285 90.8804 805.122 94.7559 804.77C97.2535 804.354 99.9177 804.021 102.665 803.688C110.99 802.689 120.689 801.566 127.932 796.987C129.775 795.741 131.515 794.349 133.135 792.825C135.018 791.057 137.116 789.533 139.379 788.288C140.245 787.85 141.197 787.608 142.168 787.581Z" fill="#F7FBFF"/>
<path d="M136.882 839.774C137.24 839.834 137.606 839.834 137.964 839.774C138.631 839.647 139.253 839.345 139.765 838.899C140.277 838.453 140.661 837.878 140.878 837.235C141.669 834.821 139.587 832.282 138.13 830.492C137.839 830.118 137.589 829.868 137.464 829.66C135.963 826.69 135.165 823.414 135.133 820.087L135.133 819.296C134.509 812.387 132.344 808.058 128.432 806.019C124.316 804.461 119.752 804.596 115.736 806.393L106.994 809.182C105.582 809.508 104.321 810.3 103.414 811.43C102.78 812.56 102.55 813.873 102.762 815.151C102.974 816.43 103.615 817.598 104.58 818.464C107.36 821.169 110.741 823.18 114.445 824.332L116.943 825.331C122.952 827.958 128.247 831.982 132.386 837.068C132.902 837.811 133.569 838.436 134.344 838.902C135.119 839.368 135.984 839.665 136.882 839.774ZM130.929 819.504L130.929 820.253C130.947 824.255 131.963 828.189 133.885 831.699C134.157 832.139 134.463 832.556 134.8 832.948C135.475 833.722 136.074 834.558 136.59 835.445C136.173 835.116 135.795 834.739 135.466 834.321C130.938 828.677 125.091 824.232 118.441 821.377C117.609 821.003 116.735 820.628 115.819 820.295C112.716 819.354 109.868 817.717 107.494 815.509C106.786 814.718 106.536 813.844 106.703 813.636C107.111 813.324 107.578 813.097 108.076 812.97L116.818 810.223C119.797 808.806 123.203 808.568 126.35 809.557C128.889 810.889 130.513 814.135 130.804 819.504L130.929 819.504Z" fill="#F7FBFF"/>
<path d="M-604.768 2324.07L-601.147 2321.99C-682.858 2178.94 -664.793 1983.86 -558.23 1858.21C-534.628 1830.44 -506.989 1805.51 -480.223 1781.41C-448.588 1752.95 -415.869 1723.48 -389.645 1689.06C-348.799 1635.05 -324.402 1570.41 -319.38 1502.88C-315.218 1443.16 -326.499 1383.1 -337.446 1325L-337.779 1323.12C-348.186 1268.02 -359.966 1205.5 -354.429 1144.4C-348.56 1078.18 -321.129 1020.91 -279.253 987.28C-229.885 947.615 -159.079 943.744 -114.581 978.331C-75.7022 1008.51 -63.5475 1056.29 -50.6851 1106.82C-41.6523 1142.44 -32.2864 1179.24 -12.7222 1209.7C11.296 1246.96 48.7592 1271.93 84.7657 1296.48C99.5429 1306.39 114.778 1316.67 128.848 1327.62C193.742 1377.94 246.899 1453.11 282.531 1545.01C316.789 1633.24 332.149 1727.31 342.638 1807.72C349.84 1862.78 356.666 1926.59 346.593 1987.27C335.645 2053.16 305.508 2107.48 261.718 2140.27L264.215 2143.64C308.88 2110.35 339.6 2054.91 350.714 1987.98C360.871 1926.71 354.002 1862.53 346.551 1807.18C336.02 1726.56 320.618 1632.16 286.235 1543.51C250.27 1450.9 196.656 1375.11 131.179 1324.33C116.984 1313.3 101.707 1302.98 86.8887 1293.03C51.0487 1268.85 13.96 1243.83 -9.4338 1207.41C-28.6234 1177.57 -37.906 1141.07 -46.8971 1105.82C-59.3849 1056.79 -72.2473 1005.93 -112.25 975.043C-158.038 939.332 -231.217 943.203 -282.084 984.033C-324.875 1018.37 -352.848 1076.72 -358.759 1144.03C-364.212 1205.71 -352.39 1268.51 -342.108 1323.91L-341.775 1325.79C-330.869 1383.6 -319.63 1443.41 -323.793 1502.59C-328.748 1569.3 -352.841 1633.16 -393.183 1686.52C-419.199 1720.65 -451.751 1749.99 -483.262 1778.33C-510.111 1802.52 -537.875 1827.53 -561.644 1855.54C-668.955 1982.49 -687.187 2179.52 -604.768 2324.07Z" fill="#F7FBFF"/>
<path d="M-25.2514 1016.79C-11.9311 1016.79 0.556655 1009.59 9.29811 1002.97C13.4607 999.85 17.2903 996.437 21.1199 993.149C27.9489 986.846 35.412 981.267 43.3898 976.5C56.4603 969.424 71.6538 967.094 86.3478 964.846C93.1744 963.806 100.168 962.723 107.161 961.225C128.681 956.355 152.949 942.953 156.82 919.812C160.733 895.755 140.711 876.026 128.432 866.412C97.2955 841.98 55.8775 827.08 8.6321 823.251C-36.1991 819.629 -81.155 826.122 -119.159 832.907C-144.843 837.527 -174.564 843.437 -202.037 855.84C-228.178 867.66 -276.755 898.418 -273.592 930.217C-273.394 933.154 -272.576 936.015 -271.191 938.612C-269.806 941.21 -267.886 943.483 -265.558 945.284C-251.197 956.397 -220.768 951.569 -198.582 948.031C-191.989 946.745 -185.311 945.938 -178.601 945.617C-137.467 946.063 -98.0263 962.064 -68.2094 990.402L-63.6305 995.063C-54.5977 1004.01 -45.2734 1013.29 -32.6608 1015.87C-30.2314 1016.45 -27.747 1016.75 -25.2514 1016.79ZM-18.2166 826.58C-9.47511 826.58 -0.692093 826.927 8.1326 827.621C54.5455 831.367 95.2142 845.976 125.684 869.866C135.009 877.192 156.238 896.587 152.533 919.354C149.12 940.414 126.267 952.651 106.078 957.354C99.4183 958.853 92.4668 959.935 85.7234 960.934C70.6548 963.265 55.0867 965.637 41.4333 973.046C33.1683 977.921 25.451 983.67 18.4142 990.193C14.6262 993.44 10.7551 996.77 6.75899 999.808C-2.85661 1007.13 -17.3841 1015.21 -31.7867 1012.09C-43.1922 1009.63 -52.1001 1000.81 -60.7166 992.275C-62.2984 990.693 -63.8803 989.111 -65.5037 987.613C-96.1121 958.609 -136.559 942.254 -178.726 941.83C-185.708 942.222 -192.658 943.042 -199.539 944.285C-220.977 947.698 -250.364 952.36 -263.31 942.329C-265.194 940.887 -266.743 939.054 -267.85 936.956C-268.956 934.858 -269.595 932.544 -269.721 930.176C-272.801 899.626 -220.852 869.159 -200.621 860.044C-176.312 849.056 -150.296 843.021 -118.702 837.402C-85.5936 830.824 -51.9661 827.202 -18.2166 826.58Z" fill="#F7FBFF"/>
<path d="M360.121 1674.32C360.967 1674.37 361.815 1674.37 362.661 1674.32C368.308 1673.87 373.596 1671.37 377.529 1667.29C381.462 1663.22 383.769 1657.84 384.015 1652.18L388.968 1571.93C391.924 1523.45 395.337 1468.51 420.854 1423.18C458.067 1357.21 533.244 1324.87 594.642 1304.1L599.138 1302.6C637.308 1289.7 676.77 1276.38 698.748 1243.42C713.692 1220.94 719.062 1190.39 715.149 1150.02C710.986 1107.32 698.499 1078.06 676.603 1060.58C657.747 1045.47 631.023 1039.06 601.385 1042.55C575.161 1045.63 550.477 1055.54 526.459 1065.11L239.24 1180.36C230.886 1183.91 222.716 1187.89 214.764 1192.26C201.61 1199.17 188.04 1206.29 174.844 1209.12C165.585 1210.39 156.19 1210.3 146.955 1208.87C127.183 1206.92 106.744 1204.92 94.7144 1221.77C92.2204 1225.37 90.5063 1229.45 89.6819 1233.76C88.8575 1238.06 88.9412 1242.48 89.9275 1246.75C93.6738 1263.4 105.829 1274.55 118.025 1284.54C134.675 1298.15 152.491 1311.01 169.808 1323.5C214.431 1355.63 260.594 1388.88 287.234 1436.92C310.045 1478.16 316.372 1526.53 322.45 1573.31C323.033 1578.01 323.657 1582.71 324.281 1587.38C327.099 1610.94 331.522 1634.29 337.518 1657.26C338.784 1662.25 341.713 1666.66 345.822 1669.76C349.931 1672.86 354.975 1674.47 360.121 1674.32ZM616.912 1045.84C637.439 1045.17 657.581 1051.52 674.023 1063.82C694.836 1080.47 706.99 1108.9 711.028 1150.44C714.816 1189.81 709.654 1219.49 695.252 1241.09C674.106 1272.93 635.31 1286 597.805 1298.65L593.31 1300.15C531.246 1321.17 455.112 1353.92 417.232 1421.14C391.216 1467.3 387.803 1522.78 384.806 1571.68L379.852 1651.93C379.644 1656.59 377.739 1661.02 374.497 1664.38C371.254 1667.73 366.897 1669.79 362.244 1670.16C357.655 1670.8 352.991 1669.73 349.149 1667.14C345.307 1664.55 342.558 1660.63 341.431 1656.13C335.504 1633.34 331.124 1610.18 328.319 1586.79C327.695 1582.13 327.07 1577.47 326.488 1572.77C320.369 1525.61 314 1476.83 290.773 1434.92C263.716 1386.05 217.178 1352.55 172.18 1320.13C154.905 1307.64 137.048 1294.82 120.564 1281.29C108.95 1271.8 97.3368 1261.19 93.9235 1245.83C93.0647 1242.13 92.9914 1238.3 93.7084 1234.57C94.4255 1230.84 95.9168 1227.3 98.0861 1224.19C108.701 1209.29 127.932 1211.16 146.539 1212.99C156.188 1214.5 166.007 1214.57 175.677 1213.2C189.455 1210.25 203.316 1202.96 216.678 1195.93C225.004 1191.52 232.954 1187.6 240.78 1184.23L527.999 1068.98C551.601 1059.49 576.035 1049.71 601.718 1046.67C606.759 1046.04 611.832 1045.69 616.912 1045.63L616.912 1045.84Z" fill="#F7FBFF"/>
<path d="M358.831 1631.33C359.37 1631.39 359.915 1631.39 360.455 1631.33C362.35 1631.01 364.067 1630.02 365.291 1628.53C366.514 1627.05 367.162 1625.18 367.115 1623.25C367.115 1578.93 367.989 1527.52 379.936 1477.91C394.962 1415.48 426.64 1365.24 469.14 1336.02C491.909 1320.38 518.342 1310.26 544.067 1300.44C557.803 1295.19 571.998 1289.74 585.693 1283.46C613.748 1270.51 662.243 1241.5 672.108 1192.76C675.049 1177.53 673.966 1161.8 668.966 1147.11C663.965 1132.42 655.22 1119.3 643.594 1109.02C618.619 1087.34 580.947 1079.55 540.154 1087.71C510.266 1093.66 482.169 1106.77 454.987 1119.47C449.867 1121.84 444.789 1124.26 439.669 1126.59C394.181 1147.05 347.585 1164.94 300.097 1180.19C289.108 1183.77 277.702 1187.77 266.796 1191.64C235.785 1202.5 203.733 1213.74 172.389 1219.73C167.884 1220.46 163.337 1220.89 158.777 1221.02C142.834 1221.94 124.769 1222.98 120.065 1242.21C118.644 1248.69 119.293 1255.45 121.923 1261.53C124.552 1267.62 129.027 1272.73 134.717 1276.13C210.893 1322.62 287.651 1374.77 316.206 1455.73C325.406 1481.82 329.11 1510.25 332.857 1537.76C336.728 1567.65 340.766 1598.57 351.88 1626.29C352.43 1627.71 353.379 1628.94 354.613 1629.83C355.846 1630.73 357.31 1631.25 358.831 1631.33ZM570.874 1088.54C598.388 1088.54 622.865 1096.62 640.556 1111.98C651.627 1121.77 659.953 1134.28 664.713 1148.27C669.472 1162.26 670.5 1177.25 667.696 1191.77C658.205 1238.71 610.959 1266.89 583.653 1279.54C570.208 1285.75 556.096 1291.16 542.402 1296.4C516.635 1306.31 489.953 1316.5 466.809 1332.45C423.435 1362.2 391.175 1413.48 375.898 1476.75C363.826 1526.69 362.869 1578.51 362.952 1623.09C363.037 1624.07 362.744 1625.05 362.133 1625.82C361.522 1626.59 360.639 1627.1 359.664 1627.25C358.727 1627.47 357.742 1627.33 356.897 1626.87C356.053 1626.41 355.407 1625.66 355.085 1624.75C344.179 1597.49 340.224 1566.86 336.395 1537.35C332.773 1509.63 329.069 1480.95 319.744 1454.48C290.606 1372.24 213.307 1319.58 136.59 1272.72C131.658 1269.77 127.773 1265.35 125.481 1260.08C123.189 1254.81 122.605 1248.95 123.811 1243.33C127.766 1227.1 143.5 1226.19 158.735 1225.31C163.478 1225.16 168.205 1224.7 172.888 1223.94C204.566 1217.9 236.742 1206.62 267.879 1195.68C278.868 1191.85 290.232 1187.85 301.179 1184.27C348.765 1168.93 395.459 1150.95 441.042 1130.42C446.204 1128.08 451.282 1125.67 456.402 1123.3C483.376 1110.81 511.224 1097.7 540.612 1091.83C550.569 1089.76 560.704 1088.66 570.874 1088.54Z" fill="#F7FBFF"/>
<path d="M346.842 1444.78C358.218 1444.31 368.959 1439.41 376.772 1431.13C386.928 1420.6 392.506 1406.7 397.585 1394.46L397.959 1393.5C407.283 1370.28 416.899 1346.26 433.3 1327.41C445.121 1313.8 460.315 1303.1 474.926 1292.78C478.422 1290.32 481.919 1287.87 485.374 1285.37C502.69 1272.89 521.755 1257.15 531.662 1235.68C540.57 1216.49 541.652 1187.89 523.045 1170.54C512.446 1161.44 498.929 1156.44 484.957 1156.47C471.439 1156.57 457.982 1158.29 444.872 1161.59L351.088 1181.36L351.088 1180.65L340.266 1183.69L333.481 1185.11L333.481 1185.56L228.5 1215.12C213.057 1219.28 195.99 1225.31 189.08 1240.09C181.338 1256.45 190.537 1275.84 201.568 1288.54C214.056 1302.52 229.541 1313.22 244.651 1323.54C248.522 1326.16 252.352 1328.78 256.181 1331.49C273.539 1343.97 292.562 1359.25 301.678 1380.81C304.094 1386.88 306.097 1393.11 307.673 1399.46C309.088 1404.74 310.545 1410.19 312.543 1415.48C317.871 1429.71 326.571 1439.58 337.019 1443.24C340.181 1444.31 343.504 1444.83 346.842 1444.78ZM482.044 1160.59L484.749 1160.59C497.719 1160.5 510.286 1165.09 520.131 1173.54C536.449 1188.81 536.365 1215.45 527.832 1233.89C518.3 1254.49 499.735 1269.72 482.834 1281.96C479.38 1284.46 475.925 1286.87 472.428 1289.33C457.526 1299.81 442.124 1310.64 429.969 1324.66C413.319 1344.02 403.371 1368.36 393.922 1391.92L393.547 1392.84C388.76 1404.74 383.348 1418.27 373.774 1428.17C365.449 1436.87 351.172 1443.66 338.351 1439.16C325.53 1434.67 319.245 1421.43 316.372 1413.86C314.499 1408.78 313.042 1403.41 311.627 1398.21C310.034 1391.67 307.976 1385.26 305.466 1379.02C295.934 1356.46 276.328 1340.52 258.512 1327.91C254.724 1325.2 250.853 1322.58 246.94 1319.92C232.038 1309.76 216.637 1299.11 204.648 1285.62C194.367 1273.93 185.792 1256.24 192.66 1241.71C198.862 1228.64 214.93 1223.15 229.457 1219.07L341.015 1187.69L445.621 1165.63C457.557 1162.7 469.762 1161.02 482.044 1160.59Z" fill="#F7FBFF"/>
<path d="M344.304 1395.46C352.295 1395 359.779 1391.39 365.117 1385.43C370.154 1379.59 374.357 1373.07 377.604 1366.08C378.437 1364.41 379.269 1362.75 380.144 1361.12C389.537 1343.7 402.085 1328.18 417.149 1315.34C422.144 1311.18 427.472 1307.01 432.676 1303.23C442.549 1296.32 451.698 1288.42 459.982 1279.67C471.638 1266.56 481.295 1245.67 473.427 1226.52C470.64 1220.52 466.636 1215.18 461.67 1210.81C456.704 1206.45 450.884 1203.17 444.581 1201.17C432.325 1197.37 419.529 1195.6 406.701 1195.93C361.316 1194.81 316.32 1204.54 275.454 1224.31C261.926 1230.72 252.227 1238.55 248.98 1255.99C244.443 1280.09 261.718 1298.36 281.074 1314.51L282.448 1315.63C294.935 1326.2 308.172 1337.11 314.125 1352.01C315.61 1356.02 316.834 1360.12 317.788 1364.29C318.663 1368.07 319.733 1371.81 320.993 1375.48C323.074 1381.18 328.028 1391.26 337.935 1394.54C340 1395.17 342.147 1395.48 344.304 1395.46ZM401.082 1199.84L406.618 1199.84C419.007 1199.52 431.364 1201.22 443.207 1204.88C448.951 1206.67 454.258 1209.64 458.794 1213.6C463.33 1217.55 466.995 1222.41 469.556 1227.85C476.716 1245.25 467.225 1265.02 457.068 1276.67C448.942 1285.2 439.99 1292.89 430.345 1299.65C425.1 1303.56 419.688 1307.6 414.652 1311.88C399.059 1325.17 386.098 1341.27 376.439 1359.33C375.565 1361 374.691 1362.66 373.858 1364.33C370.827 1370.97 366.891 1377.16 362.161 1382.72C357.083 1388.18 347.967 1393.55 339.184 1390.67C330.401 1387.8 326.696 1379.14 324.864 1374.03C323.654 1370.49 322.626 1366.89 321.784 1363.25C320.782 1358.89 319.503 1354.61 317.955 1350.43C311.627 1334.53 298.141 1323.29 285.07 1312.43L283.696 1311.26C266.588 1296.98 248.689 1279.79 253.018 1256.69C255.974 1240.92 264.465 1234.05 277.203 1228.06C315.798 1209.37 358.156 1199.74 401.04 1199.92L401.082 1199.84Z" fill="#F7FBFF"/>
<path d="M343.471 1351.01C348.778 1350.7 353.767 1348.38 357.416 1344.52C363.481 1338.01 368.369 1330.51 371.86 1322.33C375.049 1314.71 379.495 1307.67 385.014 1301.52C389.807 1297.2 395.137 1293.53 400.873 1290.57C403.787 1288.95 406.784 1287.24 409.656 1285.37C415.983 1281.21 426.64 1272.26 426.64 1259.82C426.407 1255.58 425.172 1251.47 423.037 1247.81C420.903 1244.15 417.928 1241.04 414.36 1238.76C407.489 1234.47 399.783 1231.7 391.757 1230.64C376.465 1228.56 360.975 1228.36 345.636 1230.06C340.141 1230.47 334.48 1230.89 328.985 1231.1C326.28 1231.1 323.366 1231.1 320.285 1231.1C309.005 1231.1 296.184 1230.89 286.985 1237.09C274.081 1245.96 273.415 1266.23 281.49 1278.09C287.104 1285.28 294.203 1291.17 302.303 1295.36C311.752 1301.15 320.66 1306.64 324.448 1316.84C325.548 1320.29 326.274 1323.85 326.613 1327.45C326.876 1329.97 327.279 1332.47 327.82 1334.94C329.693 1343.27 334.397 1348.93 340.307 1350.43C341.336 1350.74 342.397 1350.94 343.471 1351.01ZM370.112 1233.22C377.085 1233.16 384.049 1233.72 390.925 1234.88C398.303 1235.9 405.39 1238.44 411.738 1242.34C414.743 1244.25 417.255 1246.84 419.07 1249.91C420.885 1252.98 421.953 1256.43 422.186 1259.98C422.186 1270.47 412.695 1278.3 407.075 1282.04C404.328 1283.83 401.373 1285.54 398.75 1287.12C384.502 1293.71 373.453 1305.69 368.03 1320.42C364.77 1328.16 360.177 1335.28 354.46 1341.44C352.379 1343.43 346.884 1347.93 341.182 1346.51C334.605 1344.89 332.232 1336.65 331.649 1334.03C331.066 1331.4 330.858 1329.37 330.525 1326.91C330.166 1322.99 329.356 1319.12 328.111 1315.38C323.948 1303.85 313.917 1297.73 304.301 1291.78C296.738 1287.91 290.106 1282.44 284.862 1275.76C277.869 1265.35 278.285 1248.08 289.274 1240.5C297.225 1235.05 309.338 1235.13 319.994 1235.26C323.116 1235.26 326.155 1235.26 328.902 1235.26C334.605 1235.05 340.307 1234.64 345.844 1234.22C354.169 1233.59 362.161 1233.01 370.112 1233.01L370.112 1233.22Z" fill="#F7FBFF"/>
<path d="M350.422 1315.71C353.288 1315.65 356.07 1314.74 358.415 1313.09C366.74 1307.35 369.113 1296.24 370.902 1288.12C372.692 1280 375.065 1270.51 382.391 1266.35C383.403 1265.75 384.461 1265.24 385.555 1264.81C387.398 1264.07 389.145 1263.1 390.758 1261.94C392.493 1260.82 393.752 1259.1 394.291 1257.11C394.829 1255.12 394.609 1253 393.672 1251.16C392.846 1250.1 391.817 1249.21 390.646 1248.54C389.474 1247.88 388.182 1247.45 386.845 1247.29C380.893 1245.91 328.569 1234.8 315.29 1260.82C309.379 1272.55 316.248 1279.3 324.448 1285.79C325.738 1286.79 327.112 1287.74 328.61 1288.66C332.209 1290.75 335.317 1293.59 337.727 1296.98C338.718 1298.95 339.419 1301.06 339.808 1303.23C340.133 1307.07 341.713 1310.7 344.303 1313.55C346.016 1314.98 348.189 1315.75 350.422 1315.71ZM355.376 1247.87C365.626 1247.99 375.836 1249.16 385.846 1251.37C387.434 1251.56 388.906 1252.29 390.009 1253.45C390.966 1254.95 389.801 1257.4 388.094 1258.69C386.735 1259.64 385.268 1260.42 383.723 1261.02C382.494 1261.54 381.298 1262.14 380.143 1262.81C371.818 1267.6 368.863 1277.38 366.74 1287.29C365.033 1295.11 362.952 1304.85 355.959 1309.68C354.722 1310.72 353.196 1311.35 351.588 1311.49C349.979 1311.63 348.366 1311.28 346.968 1310.47C345.054 1308.21 343.865 1305.42 343.554 1302.48C343.111 1299.86 342.239 1297.33 340.973 1294.99C338.299 1291.04 334.789 1287.73 330.692 1285.29C329.401 1284.37 328.111 1283.46 326.904 1282.5C317.954 1275.51 314.707 1271.01 318.87 1262.69C324.864 1251.12 340.599 1247.87 355.376 1247.87Z" fill="#F7FBFF"/>
<path d="M-15.6775 974.253C-13.152 974.254 -10.6358 973.946 -8.1848 973.337C0.889652 970.964 7.71627 964.43 14.2932 958.145C16.541 956.022 18.8304 953.983 21.1614 951.86C28.9955 945.688 37.4492 940.346 46.3867 935.919L53.6297 931.965C64.2443 926.013 76.1494 918.397 83.6837 906.993C90.5103 896.587 93.882 880.646 86.0147 868.368C80.3952 859.628 70.4466 854.883 62.4544 851.719C12.5033 832.199 -43.3171 838.068 -91.9362 845.102C-116.912 848.681 -143.053 852.968 -167.654 862.374C-186.259 869.094 -203.278 879.579 -217.647 893.174C-222.267 897.711 -231.841 907.159 -225.972 917.523C-221.31 925.847 -211.361 928.178 -202.203 929.468C-187.202 931.345 -172.113 932.443 -156.998 932.756C-147.923 933.089 -138.557 933.464 -129.4 934.171C-99.8035 936.419 -77.9499 942.495 -60.6752 952.984C-57.3867 954.982 -54.1399 957.146 -51.0179 959.435C-46.512 962.711 -41.8137 965.713 -36.9483 968.425C-30.4388 972.072 -23.1367 974.072 -15.6775 974.253ZM-16.3436 842.521C10.0075 842.05 36.2133 846.526 60.9143 855.715C68.3653 858.629 77.5646 862.999 82.4765 870.74C89.3448 881.437 86.306 895.713 80.2286 904.828C73.1522 915.566 61.7883 922.85 51.59 928.552C49.2173 929.884 46.8031 931.174 44.3888 932.465C35.1921 937.021 26.5 942.532 18.4558 948.905C16.0415 950.945 13.7104 953.067 11.421 955.356C4.92733 961.558 -1.06681 967.385 -9.39199 969.508C-18.2217 971.153 -27.3483 969.494 -35.0336 964.846C-39.743 962.188 -44.3011 959.27 -48.6869 956.106C-51.8505 953.9 -55.1805 951.569 -58.5522 949.488C-82.0292 935.17 -110.044 931.549 -129.108 930.092C-138.349 929.385 -147.798 929.01 -156.914 928.677C-171.877 928.381 -186.814 927.297 -201.662 925.431C-209.987 924.307 -218.604 922.226 -222.475 915.566C-226.346 908.907 -221.101 902.331 -214.899 896.213C-200.951 883.046 -184.445 872.888 -166.405 866.37C-142.22 857.13 -116.163 852.885 -91.4783 849.347C-66.6299 845.27 -41.52 842.989 -16.3436 842.521Z" fill="#F7FBFF"/>
<path d="M-45.3566 944.659C-32.5639 944.427 -19.7936 943.497 -7.10249 941.871C2.72789 941.165 12.4395 939.293 21.8276 936.294C31.6049 933.154 39.9526 926.65 45.3879 917.939C54.8786 901.29 47.2194 879.938 35.2311 868.368C24.3668 857.921 9.17327 851.345 -12.6803 847.557C-55.0139 840.44 -97.5139 845.601 -148.381 855.465L-148.381 856.006C-159.542 858.013 -169.913 863.119 -178.31 870.74C-188.05 880.396 -191.464 894.714 -186.635 905.535C-184.249 910.071 -180.907 914.036 -176.839 917.154C-172.771 920.273 -168.075 922.472 -163.075 923.599C-156.413 925.264 -149.614 926.323 -142.761 926.762L-134.228 927.678C-122.412 929.506 -110.73 932.12 -99.2623 935.503C-86.8056 939.277 -74.07 942.06 -61.1745 943.827C-55.9217 944.401 -50.6407 944.679 -45.3566 944.659ZM-53.9317 848.556C-40.3502 848.505 -26.7882 849.591 -13.3879 851.802C7.42505 855.299 22.119 861.542 32.4006 871.364C43.3066 881.853 50.2997 900.999 41.8497 915.899C36.9129 923.788 29.3512 929.684 20.4955 932.548C11.4099 935.404 2.02241 937.192 -7.47711 937.875C-25.0147 940.469 -42.7818 941.152 -60.4668 939.915C-73.1445 938.175 -85.6693 935.462 -97.9302 931.798C-109.576 928.361 -121.438 925.705 -133.437 923.849C-136.309 923.474 -139.223 923.224 -142.137 922.933C-148.72 922.487 -155.252 921.47 -161.659 919.895C-166.058 918.914 -170.193 916.997 -173.785 914.275C-177.376 911.553 -180.339 908.09 -182.472 904.12C-186.635 894.839 -183.555 882.477 -175.022 873.987C-166.422 866.329 -155.747 861.39 -144.343 859.794C-139.39 858.795 -134.27 858.087 -129.316 857.38C-122.56 856.555 -115.849 855.388 -109.211 853.883L-109.211 853.259C-90.9235 850.348 -72.448 848.776 -53.9317 848.556Z" fill="#F7FBFF"/>
<path d="M-43.234 929.468C-28.9778 929.415 -14.7792 927.655 -0.942044 924.224C5.06728 922.999 10.8065 920.701 15.9997 917.439C18.749 915.674 21.0666 913.314 22.7814 910.533C24.4961 907.753 25.5642 904.622 25.9067 901.374C26.5311 890.261 16.7074 882.103 8.34059 877.233C-24.2109 858.296 -63.5474 855.632 -94.1841 855.382C-101.579 854.949 -108.989 855.894 -116.038 858.171C-119.946 859.585 -123.495 861.844 -126.43 864.786C-129.366 867.729 -131.616 871.282 -133.021 875.194C-134.203 878.675 -134.592 882.376 -134.16 886.027C-133.728 889.678 -132.485 893.186 -130.524 896.296C-125.586 903.426 -118.89 909.161 -111.084 912.944C-90.2029 924.033 -66.8761 929.713 -43.234 929.468ZM-96.0989 859.544L-94.1841 859.544C-64.0886 859.794 -25.4597 862.374 6.21763 880.813C13.5854 884.975 22.2437 892.134 21.7441 901.166C21.4415 903.78 20.5549 906.294 19.1499 908.52C17.7449 910.746 15.8574 912.628 13.627 914.026C8.84422 916.987 3.57271 919.073 -1.94102 920.186C-40.112 929.593 -79.1989 925.68 -109.086 909.365C-116.298 906 -122.467 900.752 -126.944 894.173C-128.586 891.574 -129.631 888.643 -130.006 885.592C-130.38 882.541 -130.074 879.444 -129.108 876.526C-127.89 873.191 -125.953 870.166 -123.435 867.663C-120.918 865.16 -117.881 863.241 -114.539 862.041C-108.596 860.094 -102.346 859.248 -96.0989 859.544Z" fill="#F7FBFF"/>
<path d="M-547.324 2311.55L-543.744 2309.46C-619.004 2180.44 -641.357 2079.13 -614.092 1990.89C-590.573 1914.77 -530.84 1857.71 -473.147 1802.72C-441.053 1772.09 -407.794 1740.29 -380.612 1705.41C-345.592 1660.07 -319.847 1608.27 -304.849 1552.97C-289.85 1497.67 -285.891 1439.97 -293.198 1383.14C-295.695 1364.12 -299.483 1344.97 -303.188 1326.49C-307.35 1306.27 -311.513 1285.37 -313.844 1264.56C-319.38 1216.99 -314.261 1178.95 -298.151 1148.27C-278.462 1110.81 -239.375 1087.09 -203.119 1090.63C-170.568 1093.87 -144.551 1116.72 -128.442 1135.37C-117.6 1148.39 -107.497 1162.01 -98.1801 1176.16C-90.8123 1186.94 -83.1948 1198.09 -74.9529 1208.5C-38.8632 1254.28 9.92235 1287.91 57.1678 1320.5C93.5489 1345.47 131.137 1371.61 162.773 1402.95C271 1510.17 303.801 1669.83 325.946 1811.09C334.688 1866.9 341.931 1921.39 334.272 1974.41C325.946 2034.39 297.599 2084.79 256.972 2112.68L259.345 2116.09C300.971 2087.54 329.734 2036.1 338.434 1975C346.052 1921.43 338.767 1866.78 330.109 1810.47C307.881 1668.54 274.996 1508.09 165.77 1400C133.843 1368.41 96.0881 1342.31 59.5822 1317.09C12.5865 1284.66 -35.9494 1251.12 -71.6644 1205.92C-79.7815 1195.59 -87.399 1184.52 -94.7252 1173.83C-104.118 1159.52 -114.319 1145.76 -125.279 1132.62C-141.929 1113.43 -168.778 1089.88 -202.661 1086.51C-240.499 1082.76 -281.334 1107.32 -301.814 1146.32C-318.465 1177.78 -323.585 1216.61 -317.924 1265.06C-315.468 1285.87 -311.263 1307.01 -307.226 1327.49C-303.563 1345.89 -299.775 1364.95 -297.277 1383.85C-290.042 1440.13 -293.973 1497.29 -308.843 1552.05C-323.714 1606.81 -349.233 1658.11 -383.942 1703C-410.958 1737.75 -444.05 1769.34 -476.061 1799.89C-534.337 1855.33 -594.278 1912.69 -618.13 1989.85C-645.686 2079.13 -623.25 2181.4 -547.324 2311.55Z" fill="#F7FBFF"/>
<path d="M-435.226 2340.89L-432.146 2338.1C-476.269 2289.49 -521.891 2239.17 -553.735 2180.44C-589.034 2115.26 -601.147 2047.25 -587.826 1988.98C-576.088 1937.87 -544.494 1887.92 -488.216 1832.61C-473.563 1818.12 -458.12 1803.93 -443.135 1790.2C-412.29 1761.89 -380.404 1732.63 -353.889 1699.34C-309.198 1643.24 -279.876 1576.49 -268.805 1505.63C-267.099 1494.6 -265.767 1483.2 -264.643 1472.33C-260.48 1437.29 -256.317 1401 -238.668 1370.53C-216.273 1331.9 -171.026 1304.43 -120.617 1298.86C-77.2426 1294.03 -30.3718 1303.56 18.7052 1327.2C111.947 1371.82 190.287 1456.85 239.781 1566.02C280.116 1655.39 302.219 1761.35 307.298 1889.88C308.838 1928.42 308.88 1969.42 298.681 2007.96C287.567 2050.12 264.964 2084.25 234.952 2104.06L237.241 2107.52C268.086 2087.16 291.355 2052.16 302.719 2009C313.042 1969.96 313 1928.59 311.46 1889.71C306.34 1760.69 284.154 1654.18 243.568 1564.32C193.867 1454.27 114.528 1368.7 20.4951 1323.29C-29.4561 1299.31 -76.9512 1289.62 -121.033 1294.53C-172.733 1300.27 -219.187 1328.53 -242.248 1368.28C-260.355 1399.5 -264.601 1436.21 -268.722 1471.71C-270.012 1482.7 -271.303 1494.02 -272.884 1505.01C-283.821 1575.15 -312.844 1641.24 -357.094 1696.76C-383.443 1729.8 -415.37 1758.98 -445.924 1787.2C-460.909 1800.93 -476.394 1815.17 -491.129 1829.7C-547.782 1885.68 -579.751 1936.08 -591.698 1988.27C-605.226 2047.42 -592.988 2116.38 -557.19 2182.44C-525.304 2241.7 -479.516 2292.07 -435.226 2340.89Z" fill="#F7FBFF"/>
</svg>
