<svg width="342" height="190" viewBox="0 0 342 190" fill="none" xmlns="http://www.w3.org/2000/svg">
<path d="M-316.128 521.166C-338.671 521.387 -360.844 515.428 -380.238 503.936C-389.416 498.107 -398.216 491.702 -406.583 484.76C-419.016 474.908 -430.751 465.606 -444.157 460.785C-452.382 457.847 -513.932 441.567 -576.646 426.958C-664.056 406.831 -695.836 403.174 -707 402.793L-706.894 399.622C-695.624 400.002 -663.612 403.681 -575.948 423.998C-513.171 438.544 -451.367 454.866 -443.099 457.825C-429.186 462.815 -417.261 472.286 -404.617 482.308C-396.345 489.147 -387.652 495.46 -378.588 501.208C-345.73 521.124 -302.469 523.429 -262.655 507.382C-222.84 491.335 -193.344 459.58 -183.554 422.434C-178.205 402.138 -177.211 379.981 -176.302 358.543C-174.526 317.592 -172.982 282.221 -144.86 263.638C-134.775 256.978 -122.469 253.934 -109.444 250.699C-97.4763 247.739 -85.1281 244.673 -73.6257 238.542C-37.5537 219.345 -24.2117 180.212 -11.2926 142.347C-8.48039 134.08 -5.81622 126.279 -2.83489 118.647C7.92751 90.3379 29.5792 65.5808 51.0405 57.0607C56.1847 54.8058 61.755 53.6877 67.371 53.7825C72.987 53.8774 78.5163 55.1831 83.5814 57.6104C97.9595 64.5661 106.734 79.619 116.017 95.56C120.467 103.522 125.359 111.23 130.67 118.647C143.849 136.207 161.73 149.677 182.246 157.5C202.761 165.323 225.073 167.179 246.599 162.853C268.126 158.527 287.987 148.195 303.887 133.054C319.787 117.913 331.074 98.581 336.445 77.2934C339.117 65.4424 341.066 53.4399 342.281 41.3523C346.636 5.6226 350.738 -16.6609 371.142 -25.4348C387.783 -32.5596 405.629 -24.7794 426.287 -15.7729C441.87 -8.98642 458.003 -1.96733 475.257 -0.973662C511.688 1.14052 540.233 -23.2994 567.826 -46.8092C594.658 -69.7058 619.989 -91.207 649.168 -85.541C659.486 -83.4268 670.544 -77.9088 681.243 -72.4965C702.218 -61.9256 726.027 -49.8325 748.905 -64.0398C769.732 -76.9363 772.015 -101.567 774.003 -123.237C774.574 -129.368 775.102 -135.161 776.012 -140.594C781.234 -172.117 805.487 -202.265 840.882 -221.229C858.41 -230.637 875.093 -255.543 892.749 -281.906C910.404 -308.27 932.077 -340.808 948.971 -344L949.563 -340.892C933.959 -337.932 912.476 -305.839 895.223 -280.067C877.335 -253.365 860.44 -228.122 842.214 -218.354C807.664 -199.855 784.025 -170.637 778.972 -140.002C778.084 -134.675 777.555 -128.945 777.005 -122.856C774.891 -100.383 772.586 -74.9278 750.406 -61.1856C726.111 -46.1326 701.478 -58.6063 679.742 -69.6423C669.17 -74.9701 658.386 -80.4458 648.491 -82.3275C620.834 -87.7821 596.053 -66.6825 569.834 -44.2721C541.755 -20.3184 512.745 4.3541 475.024 2.34562C457.157 1.35196 440.791 -5.79399 424.954 -12.6862C404.973 -21.3967 387.698 -28.9232 372.348 -22.3269C353.487 -14.2296 349.575 7.27164 345.368 41.8597C344.137 54.0749 342.167 66.2044 339.469 78.1814C333.992 100.088 322.412 119.991 306.075 135.58C289.737 151.169 269.312 161.804 247.171 166.249C225.03 170.694 202.082 168.768 180.992 160.694C159.902 152.619 141.536 138.729 128.027 120.634C122.65 113.173 117.709 105.408 113.226 97.3782C104.176 81.8601 95.6336 67.2088 82.1225 60.6759C77.4583 58.4053 72.3578 57.171 67.1713 57.0578C61.9849 56.9447 56.8354 57.9554 52.0766 60.0206C31.3976 68.2447 10.4648 92.2619 -0.00157538 119.81C-2.89833 127.378 -5.54132 135.159 -8.35349 143.383C-21.4629 181.84 -35.0163 221.608 -72.1878 241.375C-84.0497 247.718 -96.6094 250.783 -108.746 253.785C-121.433 256.957 -133.548 259.938 -143.169 266.301C-169.937 283.997 -171.46 318.628 -173.194 358.712C-174.145 380.298 -175.118 402.645 -180.552 423.258C-190.595 461.314 -220.874 493.936 -261.534 510.342C-278.872 517.408 -297.405 521.083 -316.128 521.166V521.166Z" fill="#E5F2FF"/>
<path d="M-316.107 532.245C-340.683 532.473 -364.851 525.966 -385.989 513.428C-395.565 507.38 -404.746 500.728 -413.476 493.513C-425.169 484.232 -436.227 475.479 -447.899 471.272C-454.665 468.861 -514.313 452.92 -579.162 437.91C-646.041 422.413 -679.365 416.768 -695.455 414.907L-695.202 412.793C-678.963 414.738 -645.555 420.299 -578.57 435.817C-513.658 450.87 -453.819 466.832 -447.096 469.263C-435.065 473.492 -423.837 482.434 -412.06 491.821C-403.408 498.998 -394.297 505.601 -384.784 511.589C-348.691 533.492 -301.285 536.135 -257.919 518.65C-214.552 501.166 -182.37 466.367 -171.608 425.626C-165.92 404.062 -164.926 381.228 -163.975 359.156C-162.262 319.981 -160.909 289.029 -137.967 273.87C-129.637 268.352 -118.325 265.562 -106.251 262.581C-93.5647 259.43 -80.4552 256.238 -67.6419 249.367C-27.3199 227.887 -12.5401 184.567 0.48473 146.364C3.27576 138.203 5.89763 130.507 8.73095 123.108C18.2247 98.1604 37.5505 75.7078 55.7345 68.4773C59.3126 66.8508 63.2032 66.0269 67.1335 66.0634C71.0638 66.0999 74.9384 66.996 78.4856 68.6887C89.5229 74.0164 97.3886 87.5261 105.741 101.818C110.404 110.186 115.551 118.276 121.155 126.047C135.721 145.378 155.457 160.197 178.086 168.792C200.714 177.387 225.313 179.408 249.041 174.623C272.77 169.837 294.661 158.439 312.188 141.745C329.715 125.05 342.163 103.74 348.095 80.2744C350.93 67.9546 352.999 55.4711 354.291 42.8957C358.625 7.31394 362.579 -8.45788 375.879 -14.1873C387.677 -19.2614 402.542 -12.7708 421.36 -4.58893C437.937 2.64157 455.043 10.1047 474.537 11.1829C515.853 13.4662 547.591 -13.6165 575.607 -37.4433C601.255 -59.304 623.371 -78.1414 646.757 -73.5325C655.426 -71.82 665.787 -66.598 675.682 -61.5662C697.165 -50.6993 726.555 -35.8154 755.142 -53.5323C781.128 -69.6424 783.793 -98.7547 785.949 -122.011C786.499 -128.015 787.006 -133.554 787.831 -138.501C792.44 -166.324 814.367 -193.216 846.464 -210.384C866.678 -221.208 884.164 -247.34 902.686 -275.014C920.426 -301.484 940.259 -329.983 951.318 -331.991L951.72 -329.877C940.682 -327.763 916.261 -291.315 904.526 -273.788C885.855 -245.902 868.221 -219.538 847.436 -208.46C815.91 -191.546 794.407 -165.267 789.882 -138.079C789.079 -133.195 788.571 -127.698 788.042 -121.863C785.928 -97.9302 783.116 -68.2893 756.326 -51.6507C726.724 -33.3207 696.721 -48.5005 674.794 -59.6C664.962 -64.5683 654.792 -69.7058 646.419 -71.376C623.985 -75.7947 602.27 -57.2744 577.108 -35.8154C548.711 -11.608 516.593 15.7918 474.474 13.4451C454.62 12.3457 437.324 4.79805 420.599 -2.49588C402.224 -10.4875 387.741 -16.8089 376.788 -12.0943C364.44 -6.8088 360.676 8.56131 356.468 43.2339C355.138 55.8642 353.048 68.4029 350.21 80.7818C343.974 104.593 331.239 126.202 313.429 143.193C295.618 160.184 273.432 171.889 249.352 176.998C241.248 178.618 233.004 179.432 224.74 179.43C184.037 179.43 143.716 160.064 119.167 127.209C113.52 119.376 108.331 111.223 103.626 102.79C95.4433 88.7734 87.7257 75.5387 77.2805 70.4858C73.9815 68.916 70.3782 68.0892 66.7248 68.0636C63.0714 68.038 59.4569 68.8143 56.1363 70.3377C38.4597 77.3568 19.6202 99.3232 10.3168 123.742C7.50459 131.163 4.8827 138.837 2.11281 146.998C-11.06 185.582 -25.9666 229.324 -67.0287 251.185C-80.0746 258.141 -93.3109 261.418 -106.124 264.589C-117.923 267.507 -129.066 270.276 -137.079 275.583C-159.154 290.171 -160.465 320.636 -162.156 359.22C-163.108 381.398 -164.123 404.337 -169.853 426.113C-180.806 467.593 -213.537 502.942 -257.432 520.659C-276.07 528.235 -295.988 532.167 -316.107 532.245Z" fill="#E5F2FF"/>
<path d="M-316.107 543.957C-342.816 544.188 -369.077 537.096 -392.036 523.45C-402.008 517.173 -411.564 510.26 -420.644 502.752C-431.618 494.041 -441.936 485.838 -451.832 482.308C-457.689 480.194 -516.723 464.379 -581.784 449.305C-625.764 439.115 -660.208 432.054 -684.164 428.333L-683.826 426.218C-659.827 429.96 -625.341 437.022 -581.298 447.233C-516.174 462.329 -457.012 478.185 -451.113 480.299C-440.9 483.957 -430.455 492.244 -419.397 501.018C-410.359 508.489 -400.853 515.374 -390.937 521.632C-351.693 545.416 -300.418 548.376 -253.753 529.517C-207.088 510.659 -172.242 472.942 -160.549 428.586C-154.545 405.816 -153.53 382.349 -152.536 359.685C-150.908 322.391 -149.745 295.456 -131.73 283.574C-125.091 279.177 -114.709 276.619 -103.714 273.891C-90.3507 270.572 -76.5436 267.147 -62.4404 259.642C-18.0376 236.026 -1.84114 188.394 11.226 150.127C13.9959 142.03 16.5755 134.44 19.3242 127.209C27.6128 105.454 44.6973 85.2851 59.7519 79.2597C66.3912 76.6169 70.324 77.8009 73.1573 79.1328C81.0018 82.9172 88.3389 95.4966 95.4222 107.674C100.304 116.436 105.69 124.907 111.555 133.045C137.393 167.611 180.802 189.092 224.846 189.07C233.713 189.082 242.56 188.211 251.255 186.47C303.122 176.047 346.615 134.567 359.45 83.2343C362.379 70.4418 364.497 57.4773 365.793 44.4179C369.874 10.9081 373.299 -0.254804 380.425 -3.32037C387.55 -6.38594 401.061 -0.529651 416.624 6.25688C434.194 13.9102 452.273 21.7961 473.84 22.9801C475.679 23.0858 477.519 23.1281 479.337 23.1281C522.598 23.1281 556.175 -5.51912 583.176 -28.5214C606.435 -48.3736 626.564 -65.5197 644.495 -61.989C651.62 -60.5936 661.177 -55.6464 670.439 -51.0587C693.021 -39.6421 727.126 -22.3692 761.359 -43.511C792.25 -62.6655 795.358 -96.3656 797.621 -120.954C798.128 -126.598 798.636 -131.905 799.376 -136.472C803.33 -160.912 823.015 -184.675 851.961 -200.235C874.734 -212.434 893.002 -239.728 912.349 -268.65C933.874 -300.786 947.343 -317.805 953.538 -320.659L954.426 -318.736C950.472 -316.917 940.281 -306.537 914.104 -267.467C894.609 -238.291 876.193 -210.806 852.955 -198.333C824.58 -183.132 805.296 -159.939 801.385 -136.281C800.645 -131.778 800.158 -126.493 799.651 -120.911C797.346 -95.8582 794.174 -61.5661 762.373 -41.8619C727.232 -20.107 692.598 -37.6336 669.508 -49.325C660.353 -53.9551 650.922 -58.712 644.135 -60.0651C627.22 -63.4055 607.492 -46.5554 584.635 -27.0627C557.381 -3.80662 523.465 25.0943 479.422 25.0943C477.561 25.0943 475.679 25.0943 473.819 24.9463C451.871 23.72 433.645 15.7707 415.926 8.03279C400.744 1.41539 387.677 -4.29289 381.355 -1.56559C375.033 1.1617 371.861 12.684 367.992 44.4813C366.679 57.6292 364.561 70.6841 361.649 83.5726C348.603 135.666 304.454 177.781 251.699 188.352C242.871 190.117 233.89 191.002 224.888 190.994C180.189 190.994 136.082 169.218 109.906 134.123C104.008 125.986 98.5861 117.515 93.6672 108.753C86.7108 96.8285 79.5429 84.524 72.2693 81.0144C69.9222 79.8728 66.4546 78.9002 60.5765 81.2047C45.9447 87.0187 29.4311 106.575 21.3329 127.949C18.6053 135.138 16.0257 142.749 13.2981 150.698C0.0830085 189.409 -16.3038 237.379 -61.4043 261.481C-75.7401 269.113 -89.6741 272.581 -103.164 275.921C-113.969 278.606 -124.181 281.122 -130.525 285.329C-147.63 296.64 -148.793 323.11 -150.379 359.77C-151.373 382.56 -152.494 406.134 -158.456 429.115C-170.339 474.126 -205.65 512.393 -252.928 531.484C-272.992 539.657 -294.442 543.892 -316.107 543.957Z" fill="#E5F2FF"/>
<path d="M184.714 369.093C168.92 369.093 151.708 364.865 131.093 355.753C123.882 352.602 116.693 349.093 109.737 345.71C98.7213 340.119 87.43 335.087 75.9062 330.636C49.7931 321.017 20.6776 317.317 -2.70791 314.336C-12.8571 313.046 -23.3657 311.714 -32.6692 306.978C-40.9366 302.75 -50.0286 294.188 -50.7264 282.623C-51.2761 273.426 -46.2861 265.287 -41.9938 260.065C-38.7846 256.33 -35.3455 252.8 -31.6966 249.494C-29.4764 247.379 -27.1717 245.265 -25.0362 243.003C-6.83102 223.975 1.90156 198.225 10.3381 173.235C17.21 153.002 24.3143 132.093 36.4511 114.418C41.9063 106.49 47.1713 101.247 53.0071 97.9489C60.5767 93.7206 69.4361 93.0229 76.1176 96.2365C84.2582 100.127 88.4236 108.499 92.441 116.596C92.9484 117.611 93.4347 118.71 93.9422 119.577C101.496 134.257 111.897 147.287 124.538 157.907C127.246 160.067 130.07 162.078 132.996 163.933C142.637 170.275 153.569 177.463 152.131 190.318C151.571 194.053 150.636 197.722 149.34 201.269C148.156 204.508 147.271 207.848 146.697 211.248C146.464 212.918 146.401 214.652 146.316 216.343C146.433 220.314 145.653 224.26 144.033 227.887C141.051 233.447 135.131 235.857 129.401 238.204C124.792 240.086 120.034 242.009 116.926 245.582C110.583 252.707 113.226 264.335 119.527 270.699C125.193 276.407 133.989 279.811 145.682 280.805C149.446 281.122 153.336 281.206 157.079 281.291C163.101 281.294 169.115 281.74 175.073 282.623C185.964 284.685 196.124 289.565 204.542 296.776C212.96 303.987 219.34 313.278 223.049 323.723C225.163 330.065 227.933 342.412 221.907 352.793C216.557 362.011 204.992 367.846 190.085 368.797C188.393 369.03 186.554 369.093 184.714 369.093ZM66.8776 96.4268C62.4237 96.4915 58.0588 97.6845 54.1911 99.894C48.6513 103.044 43.619 108.055 38.3541 115.729C26.3654 133.15 19.3244 153.933 12.4948 174.017C4.0371 199.155 -4.84346 225.117 -23.4504 244.483C-25.5648 246.745 -27.9541 248.944 -30.1954 251.058C-33.775 254.299 -37.1505 257.759 -40.3023 261.418C-44.3408 266.323 -49.0771 273.976 -48.5485 282.559C-47.9142 293.236 -39.3931 301.228 -31.6331 305.16C-22.6469 309.727 -12.3285 311.038 -2.34843 312.306C21.1428 315.287 50.3852 319.008 76.7097 328.712C88.2748 333.195 99.6082 338.254 110.667 343.871C117.603 347.254 124.77 350.742 131.938 353.892C154.626 363.829 173.106 367.951 190.064 366.873C196.766 366.429 213.09 364.125 220.194 351.905C225.797 342.243 223.197 330.636 221.146 324.568C217.57 314.48 211.41 305.506 203.28 298.543C195.151 291.58 185.337 286.87 174.819 284.885C168.959 284.016 163.044 283.578 157.121 283.574C153.357 283.574 149.446 283.405 145.598 283.067C133.397 282.031 124.157 278.437 118.11 272.348C111.154 265.308 108.405 252.369 115.425 244.356C118.85 240.424 123.882 238.373 128.682 236.407C134.307 234.124 139.635 231.946 142.257 227.062C143.744 223.741 144.466 220.129 144.371 216.491C144.371 214.758 144.54 212.961 144.773 211.206C145.362 207.676 146.275 204.208 147.5 200.846C148.749 197.422 149.648 193.88 150.186 190.275C151.497 178.69 141.601 172.178 132.002 165.878C128.998 163.993 126.104 161.938 123.333 159.725C110.477 148.89 99.9103 135.6 92.2507 120.634V120.634C91.7432 119.662 91.2358 118.647 90.7495 117.653C86.8801 109.873 82.8627 101.839 75.3988 98.2449C72.7308 97.0073 69.8185 96.3859 66.8776 96.4268V96.4268Z" fill="#E5F2FF"/>
<path d="M167.059 356.027C165.505 356.029 163.952 355.944 162.407 355.774C149.509 354.251 137.795 348.078 126.462 342.095L120.88 339.198C85.0593 320.847 45.9438 309.808 5.81322 306.725L2.91647 306.513C-6.21782 305.879 -15.6481 305.202 -23.9789 301.122C-33.0921 296.682 -41.0635 286.576 -38.6742 275.879C-36.8981 267.972 -30.3434 262.771 -24.0001 257.739C-22.7315 256.724 -21.4628 255.73 -20.2575 254.716C-2.3907 239.768 6.84932 217.633 12.9177 200.001C15.0321 193.933 16.9562 187.654 18.838 181.586C23.3418 167.125 27.9935 152.157 34.9922 138.414C38.1427 132.199 43.2596 123.235 51.231 117.04C56.665 112.812 65.8416 108.414 73.813 109.979C80.1562 111.205 82.4821 116.321 84.7022 121.036L85.4 122.558C92.1921 137.48 103.118 150.143 116.884 159.049C118.321 159.958 119.823 160.846 121.324 161.734C127.498 165.391 133.884 169.176 137.69 175.413C142.236 182.876 141.918 191.734 141.242 201.713C140.734 208.457 140.121 216.851 135.427 223.13C132.388 226.743 128.729 229.786 124.622 232.115C122.02 233.702 119.545 235.49 117.222 237.464C114.479 240.169 112.299 243.391 110.808 246.944C109.316 250.496 108.544 254.308 108.534 258.161C108.524 262.013 109.277 265.83 110.75 269.39C112.223 272.95 114.387 276.183 117.116 278.902C125.785 286.767 138.134 288.331 150.08 289.853C153.125 290.234 156.275 290.636 159.299 291.122C172.725 293.236 182.832 297.697 190.191 304.505C199.367 312.961 203.3 325.647 199.959 335.922C195.561 349.452 180.591 356.027 167.059 356.027ZM70.3453 111.755C63.8541 111.755 56.9187 115.285 52.5207 118.689C46.7061 123.235 41.7372 129.789 36.874 139.366C29.9599 152.96 25.3293 167.844 20.8468 182.22C18.9649 188.288 17.0197 194.588 14.9053 200.698C8.7523 218.584 -0.635725 241.058 -18.9255 256.344C-20.1518 257.358 -21.4205 258.458 -22.7103 259.388C-28.7575 264.187 -35.0162 269.156 -36.6232 276.301C-38.7376 285.815 -31.2314 295.202 -23.0698 299.177C-14.9081 303.152 -5.87952 303.722 3.04333 304.357L5.94008 304.568C46.3684 307.684 85.7718 318.817 121.853 337.317L127.435 340.234C138.599 346.112 150.165 352.201 162.64 353.659C176.362 355.245 193.383 349.431 197.951 335.266C201.038 325.731 197.337 313.997 188.753 306.048C181.712 299.558 171.964 295.35 158.94 293.215C155.958 292.729 152.85 292.327 149.826 291.946C137.542 290.382 124.855 288.775 115.7 280.466C112.75 277.55 110.411 274.076 108.818 270.246C107.224 266.417 106.409 262.308 106.419 258.161C106.428 254.013 107.263 249.909 108.875 246.087C110.486 242.265 112.842 238.802 115.805 235.899C118.207 233.838 120.774 231.979 123.481 230.339C127.373 228.15 130.845 225.286 133.736 221.882C137.964 216.068 138.662 208.013 139.127 201.544C139.846 191.946 140.1 183.447 135.871 176.512C132.361 170.719 126.208 167.083 120.246 163.552C118.723 162.664 117.222 161.776 115.763 160.846C101.656 151.725 90.459 138.754 83.497 123.467L82.7781 121.924C80.6637 117.167 78.7184 113.087 73.4112 112.051C72.4022 111.846 71.3748 111.747 70.3453 111.755V111.755Z" fill="#E5F2FF"/>
<path d="M155.683 342.031C154.327 342.033 152.971 341.956 151.624 341.799C140.692 340.488 130.775 335.181 121.197 330.023L116.418 327.486C82.5657 309.809 45.0752 300.22 6.89152 299.473H5.03082C-0.611497 299.656 -6.25102 299.03 -11.7154 297.612C-18.7564 295.498 -23.9156 290.72 -25.5226 284.927C-28.2502 275.181 -20.9977 266.428 -13.3435 258.31C6.48977 237.274 20.4872 215.032 28.226 192.22C29.1775 189.387 30.0656 186.533 30.9325 183.764C33.0831 175.63 36.1919 167.781 40.1936 160.381C45.5854 151.311 55.798 141.86 68.4634 142.6C75.6101 143.023 82.0591 146.702 87.7469 149.937L115.234 165.645C134.095 176.406 141.157 191.501 134.602 207.083C131.219 215.159 124.918 221.481 118.808 227.591L118.448 227.971C111.83 234.61 106.121 240.656 103.33 248.5C98.615 261.65 104.599 278.331 116.947 286.555C123.586 290.932 131.558 293.025 139.275 295.012L143.885 296.259C152.935 298.754 163.063 302.39 169.49 310.403C175.918 318.416 176.912 331.397 168.729 338.099C164.955 340.857 160.353 342.244 155.683 342.031ZM67.1102 144.609C55.9672 144.609 46.6849 153.51 42.012 161.374C38.0985 168.628 35.0607 176.322 32.9623 184.292C32.0742 187.189 31.1862 190.064 30.2347 192.918C22.3691 216.026 8.22362 238.521 -11.7999 259.768C-19.0524 267.464 -25.9243 275.688 -23.4927 284.378C-21.8223 290.318 -15.9865 294.06 -11.1022 295.583C-5.82607 296.92 -0.388312 297.511 5.05199 297.338H6.91269C45.4278 298.084 83.2449 307.752 117.391 325.583L122.191 328.141C131.6 333.194 141.326 338.416 151.793 339.663C156.381 340.213 162.788 340.065 167.397 336.302C174.607 330.403 173.423 318.543 167.841 311.587C161.773 304.039 152.046 300.551 143.314 298.141L138.726 296.915C130.86 294.8 122.719 292.686 115.784 288.141C102.421 279.346 96.2257 261.946 101.343 247.675C104.282 239.515 110.139 233.193 116.947 226.364L117.328 226.005C123.269 220.022 129.422 213.848 132.657 206.174C141.305 185.582 122.614 172.178 114.177 167.379L86.6897 151.67C81.2134 148.541 74.997 145.011 68.3366 144.609H67.1102Z" fill="#E5F2FF"/>
<path d="M121.451 320.382C120.986 320.382 120.542 320.382 120.098 320.382C115.759 319.701 111.581 318.232 107.77 316.048L106.925 315.626C83.023 303.889 57.0727 296.896 30.5096 295.033L27.1476 294.822C21.2004 294.667 15.2876 293.866 9.51339 292.433C1.60546 290.15 -4.52635 285.435 -7.40196 279.536C-13.0263 267.76 -5.28757 254.758 -1.60848 249.705C0.505944 246.788 2.83185 243.997 5.11543 241.249C8.99482 236.642 12.6025 231.814 15.9201 226.788L18.9648 221.819L37.6986 187.379C41.0817 181.248 44.5916 174.927 49.9411 170.043C57.9547 162.728 70.2606 159.007 84.4907 159.599C93.363 159.711 102.073 161.99 109.864 166.237C113.784 168.394 117.218 171.335 119.95 174.878C122.682 178.421 124.654 182.49 125.743 186.829C127.561 195.075 125.51 204.652 119.844 214.568C117.242 218.937 114.419 223.171 111.386 227.253C108.891 230.741 106.312 234.335 104.07 238.035C98.319 247.549 95.972 256.302 97.0503 264.082C98.5304 274.653 106.163 284.23 120.309 293.49L121.303 294.124C124.687 296.059 127.736 298.53 130.331 301.439C131.856 303.153 132.879 305.252 133.289 307.509C133.699 309.765 133.481 312.09 132.657 314.23C130.712 318.543 125.722 320.382 121.451 320.382ZM14.0171 232.813C11.7124 236.153 9.3231 239.515 6.74351 242.581C4.50222 245.244 2.17635 248.035 0.125364 250.889C-3.27885 255.625 -10.6159 267.803 -5.47783 278.564C-2.89824 283.934 2.76843 288.205 10.0843 290.34C15.708 291.722 21.4642 292.495 27.2534 292.644L30.6364 292.856C57.4735 294.741 83.6901 301.813 107.834 313.68L108.701 314.103C112.275 316.204 116.201 317.637 120.288 318.332C124.094 318.691 128.999 317.296 130.86 313.406C132.721 309.516 130.86 305.372 128.746 302.835C126.311 300.108 123.455 297.789 120.288 295.964L119.294 295.329C104.493 285.731 96.6063 275.625 95.0205 264.441C93.8576 256.175 96.3314 246.936 102.336 236.957C104.62 233.172 107.221 229.536 109.737 226.026C112.591 222.009 115.552 217.845 118.025 213.532C121.789 206.935 125.828 197.02 123.713 187.295C122.684 183.238 120.829 179.438 118.264 176.131C115.699 172.825 112.479 170.083 108.807 168.077C101.339 164.014 92.9915 161.837 84.4907 161.734C70.7892 161.163 59.1177 164.694 51.4635 171.628C46.3677 176.28 43.0058 182.453 39.6227 188.415L16.787 228.944L14.0171 232.813Z" fill="#E5F2FF"/>
<path d="M78.3588 294.145C75.0425 294.068 71.7358 293.758 68.4633 293.215L43.6189 289.663C37.9734 288.86 31.5878 287.929 26.2806 284.631C19.0282 280.086 14.2919 271.058 13.5941 260.445C12.7695 247.443 17.5481 235.075 22.3056 224.504C27.8071 212.006 34.7926 200.216 43.1115 189.387L44.4436 187.675C46.9597 184.334 49.8142 180.571 53.7258 178.922C59.1496 177.025 64.9346 176.388 70.6412 177.062C77.8692 177.669 84.7762 180.316 90.5591 184.694V184.694C101.913 193.425 107.136 209.261 102.992 222.39C101.446 226.701 99.4551 230.839 97.0503 234.737C94.6747 238.528 92.7247 242.569 91.2356 246.787C89.1408 253.674 89.5451 261.079 92.3774 267.697C92.8285 268.669 93.2937 269.642 93.773 270.614C95.6363 273.674 96.6845 277.161 96.8177 280.741C96.5428 287.232 90.7493 291.777 85.4844 293.278C83.1591 293.887 80.7622 294.179 78.3588 294.145V294.145ZM65.8837 178.922C62.0121 178.826 58.1579 179.471 54.5293 180.825C51.1463 182.263 48.4609 185.793 46.0716 188.901C45.6065 189.514 45.1624 190.106 44.7184 190.656C36.4915 201.348 29.5905 212.998 24.1662 225.35C19.5145 235.603 14.8416 247.781 15.7085 260.318C16.3217 270.234 20.6986 278.648 27.3802 282.834C32.3068 285.9 38.4597 286.788 43.8938 287.57L68.8017 291.122C73.9186 291.841 79.7332 292.686 84.977 291.122C89.523 289.853 94.5341 285.984 94.7667 280.551C94.5939 277.328 93.6279 274.198 91.9545 271.439C91.4471 270.445 90.9608 269.452 90.5167 268.437C87.4675 261.362 87.0328 253.434 89.2904 246.069C90.8189 241.696 92.8257 237.506 95.2742 233.574C97.6121 229.809 99.5401 225.804 101.025 221.629C104.916 209.345 99.9893 194.461 89.3327 186.258C83.8599 182.128 77.3269 179.635 70.4932 179.07C69.2668 179.028 67.6599 178.922 65.8837 178.922V178.922Z" fill="#E5F2FF"/>
<path d="M154.626 220.001C154.131 220.003 153.642 219.902 153.188 219.705C152.247 219.112 151.53 218.224 151.147 217.18C150.765 216.135 150.739 214.994 151.074 213.933C151.627 211.697 152.518 209.558 153.717 207.591C154.245 206.639 154.753 205.688 155.197 204.694C157.335 199.891 157.606 194.464 155.958 189.472L155.641 188.542C155.153 187.36 154.84 186.114 154.711 184.842C154.611 183.985 154.741 183.116 155.086 182.325C155.432 181.534 155.98 180.849 156.677 180.339C157.379 179.898 158.186 179.652 159.015 179.626C159.843 179.6 160.664 179.795 161.392 180.191C162.714 180.891 163.931 181.774 165.008 182.813C165.766 183.486 166.564 184.115 167.397 184.694C171.125 186.554 175.203 187.605 179.365 187.781C180.781 187.95 182.177 188.119 183.488 188.331C185.765 188.56 187.965 189.282 189.937 190.445C191.041 191.115 191.909 192.112 192.421 193.298C192.933 194.484 193.062 195.799 192.791 197.062C191.819 200.381 187.949 201.396 185.391 202.052C175.596 204.658 166.708 209.909 159.701 217.231C158.423 218.767 156.608 219.757 154.626 220.001V220.001ZM158.982 181.65C158.553 181.645 158.132 181.77 157.776 182.009C157.389 182.313 157.088 182.713 156.903 183.169C156.718 183.625 156.654 184.122 156.719 184.61C156.859 185.684 157.137 186.735 157.544 187.739C157.671 188.056 157.776 188.394 157.882 188.711C159.698 194.21 159.396 200.188 157.036 205.477C156.571 206.513 156.043 207.591 155.493 208.5C154.405 210.317 153.586 212.283 153.061 214.335C152.786 215.709 153.061 217.316 154.055 217.76C155.049 218.204 156.296 217.527 158.094 215.646C165.339 208.013 174.574 202.558 184.756 199.895C187.547 199.155 190.085 198.331 190.677 196.343C190.796 195.519 190.668 194.678 190.311 193.926C189.954 193.174 189.382 192.544 188.668 192.115C186.943 191.151 185.034 190.56 183.065 190.381V190.381C181.796 190.17 180.443 190.001 179.047 189.832C174.819 189.324 169.892 188.753 166.213 186.428C165.277 185.795 164.393 185.088 163.57 184.314C162.613 183.416 161.548 182.642 160.398 182.009C159.958 181.786 159.475 181.664 158.982 181.65V181.65Z" fill="#E5F2FF"/>
<path d="M549.663 323.955C541.445 323.955 533.22 323.61 524.987 322.919C494.582 320.361 468.828 312.095 448.488 298.395C434.596 289.029 422.776 276.788 411.337 264.948C406.009 259.43 400.49 253.722 394.824 248.373C370.773 225.764 342.568 208.031 311.769 196.153C309.467 195.29 307.435 193.832 305.882 191.926C304.329 190.02 303.311 187.736 302.931 185.307C302.544 182.955 302.786 180.543 303.633 178.315C304.48 176.088 305.901 174.123 307.752 172.622C349.427 138.52 374.969 84.5028 374.42 31.6482V31.1619C374.42 22.7052 374.229 13.2548 382.877 8.4133C385.662 6.90279 388.804 6.17235 391.969 6.29912C399.454 6.55282 405.755 10.1046 411.824 13.5508L414.763 15.1998C462.464 41.3946 527.44 32.1133 565.923 -6.32256C569.242 -9.66297 575.437 -15.8364 581.95 -11.0161C583.093 -10.116 584.044 -8.99525 584.745 -7.72038C585.446 -6.44552 585.883 -5.04265 586.031 -3.59528C598.168 93.6572 654.031 183.975 735.478 238.204C739.308 240.625 742.27 244.201 743.936 248.415C748.566 260.783 738.544 268.077 729.304 273.067C715.729 280.403 701.626 287.147 687.375 293.152C638.067 313.976 593.664 323.955 549.663 323.955ZM391.356 8.43443C388.777 8.39595 386.23 9.01439 383.956 10.2315C376.365 14.4599 376.45 22.9166 376.534 31.1196V31.5847C377.084 85.0947 351.161 139.746 309.105 174.229C307.538 175.5 306.335 177.163 305.618 179.049C304.902 180.936 304.697 182.978 305.024 184.969C305.348 187.032 306.213 188.973 307.532 190.592C308.85 192.212 310.575 193.452 312.531 194.187C343.59 206.164 372.032 224.048 396.283 246.851C401.97 252.221 407.51 257.95 412.86 263.49C424.214 275.244 435.97 287.401 449.587 296.598C469.632 310.107 495.026 318.226 525.072 320.763C576.981 325.118 628.256 315.731 686.487 291.164C700.675 285.181 714.714 278.479 728.226 271.164L728.733 272.094L728.226 271.164C737.254 266.301 745.923 259.874 741.885 249.113C740.374 245.32 737.702 242.101 734.252 239.916C652.318 185.371 596.095 94.4183 583.895 -3.36272C583.783 -4.52789 583.437 -5.65847 582.878 -6.68661C582.318 -7.71476 581.557 -8.61928 580.639 -9.34586C575.987 -12.8131 571.547 -9.02873 567.382 -4.88493C528.265 34.2486 462.189 43.7413 413.706 16.9969C412.712 16.4683 411.739 15.8975 410.745 15.3478C404.888 12.0286 398.82 8.60357 391.864 8.37101L391.356 8.43443Z" fill="#E5F2FF"/>
</svg>
