<svg width="375" height="817" viewBox="0 0 375 817" fill="none" xmlns="http://www.w3.org/2000/svg">
<path d="M1077.5 1455.98C1121.88 1456.41 1165.53 1444.68 1203.71 1422.06C1221.78 1410.58 1239.11 1397.97 1255.58 1384.31C1280.05 1364.91 1303.16 1346.6 1329.55 1337.11C1345.74 1331.32 1466.91 1299.27 1590.38 1270.51C1762.46 1230.89 1825.02 1223.69 1847 1222.94L1846.79 1216.7C1824.61 1217.45 1761.58 1224.69 1589 1264.69C1465.41 1293.32 1343.74 1325.45 1327.47 1331.28C1300.08 1341.1 1276.6 1359.75 1251.71 1379.48C1235.42 1392.94 1218.31 1405.37 1200.47 1416.69C1135.78 1455.89 1050.61 1460.43 972.231 1428.84C893.849 1397.25 835.781 1334.73 816.508 1261.61C805.977 1221.65 804.02 1178.03 802.231 1135.83C798.734 1055.21 795.695 985.574 740.333 948.988C720.477 935.878 696.251 929.884 670.609 923.516C647.049 917.689 622.74 911.654 600.095 899.584C529.081 861.792 502.815 784.751 477.382 710.207C471.846 693.933 466.601 678.575 460.731 663.55C439.544 607.819 396.919 559.08 354.669 542.307C344.541 537.868 333.575 535.666 322.519 535.853C311.463 536.04 300.578 538.61 290.606 543.389C262.301 557.082 245.026 586.717 226.752 618.099C217.991 633.775 208.36 648.948 197.905 663.549C171.96 698.119 136.757 724.638 96.3686 740.038C55.9802 755.439 12.0564 759.092 -30.3218 750.576C-72.7 742.059 -111.801 721.721 -143.102 691.913C-174.403 662.105 -196.626 624.046 -207.198 582.138C-212.458 558.807 -216.295 535.178 -218.687 511.382C-227.262 441.042 -235.337 397.173 -275.506 379.9C-308.266 365.874 -343.398 381.191 -384.067 398.921C-414.745 412.282 -446.506 426.1 -480.473 428.056C-552.194 432.218 -608.389 384.104 -662.711 337.821C-715.534 292.745 -765.402 250.416 -822.846 261.571C-843.159 265.733 -864.93 276.596 -885.992 287.251C-927.285 308.062 -974.156 331.869 -1019.2 303.9C-1060.2 278.511 -1064.69 230.022 -1068.61 187.36C-1069.73 175.29 -1070.77 163.886 -1072.56 153.189C-1082.84 91.1316 -1130.59 31.7797 -1200.27 -5.55465C-1234.78 -24.0761 -1267.62 -73.106 -1302.38 -125.008C-1337.13 -176.91 -1379.8 -240.965 -1413.06 -247.25L-1414.23 -241.131C-1383.51 -235.304 -1341.21 -172.123 -1307.25 -121.387C-1272.03 -68.819 -1238.77 -19.1232 -1202.89 0.105846C-1134.87 36.5245 -1088.34 94.0451 -1078.39 154.354C-1076.64 164.843 -1075.6 176.122 -1074.52 188.109C-1070.35 232.353 -1065.82 282.465 -1022.15 309.519C-974.323 339.153 -925.828 314.596 -883.037 292.87C-862.224 282.382 -840.995 271.602 -821.514 267.897C-767.067 257.159 -718.281 298.697 -666.665 342.816C-611.386 389.973 -554.275 438.545 -480.015 434.591C-444.841 432.634 -412.622 418.566 -381.444 404.998C-342.108 387.85 -308.1 373.033 -277.879 386.019C-240.749 401.96 -233.048 444.288 -224.764 512.381C-222.341 536.429 -218.463 560.308 -213.151 583.886C-202.369 627.013 -179.573 666.196 -147.409 696.885C-115.246 727.575 -75.0351 748.511 -31.4469 757.262C12.1413 766.014 57.3181 762.222 98.8369 746.326C140.356 730.43 176.513 703.084 203.109 667.462C213.692 652.773 223.421 637.486 232.247 621.678C250.063 591.128 266.88 562.285 293.479 549.424C302.661 544.954 312.702 542.524 322.912 542.301C333.123 542.078 343.26 544.068 352.629 548.134C393.339 564.324 434.549 611.606 455.154 665.839C460.856 680.739 466.06 696.056 471.596 712.246C497.404 787.956 524.086 866.245 597.264 905.161C620.617 917.648 645.342 923.683 669.236 929.593C694.211 935.836 718.063 941.705 737.003 954.233C789.701 989.07 792.698 1057.25 796.112 1136.16C797.985 1178.65 799.9 1222.65 810.597 1263.23C830.37 1338.15 889.978 1402.37 970.025 1434.67C1004.16 1448.58 1040.64 1455.81 1077.5 1455.98V1455.98Z" fill="#F7FBFF"/>
<path d="M1077.46 1477.79C1125.84 1478.24 1173.42 1465.43 1215.03 1440.74C1233.89 1428.84 1251.96 1415.74 1269.15 1401.54C1292.17 1383.27 1313.94 1366.03 1336.92 1357.75C1350.24 1353.01 1467.66 1321.62 1595.33 1292.07C1726.99 1261.56 1792.59 1250.45 1824.27 1246.79L1823.77 1242.63C1791.8 1246.46 1726.03 1257.4 1594.16 1287.95C1466.37 1317.59 1348.57 1349.01 1335.33 1353.8C1311.65 1362.12 1289.55 1379.73 1266.36 1398.21C1249.33 1412.34 1231.39 1425.33 1212.66 1437.12C1141.61 1480.24 1048.28 1485.45 962.907 1451.02C877.532 1416.6 814.177 1348.1 792.99 1267.89C781.792 1225.44 779.836 1180.49 777.963 1137.03C774.591 1059.91 771.927 998.976 726.763 969.133C710.362 958.27 688.092 952.776 664.324 946.907C639.348 940.706 613.54 934.421 588.315 920.894C508.934 878.607 479.838 793.325 454.196 718.115C448.702 702.049 443.54 686.899 437.962 672.332C419.272 623.219 381.226 579.017 345.428 564.782C338.384 561.58 330.724 559.958 322.987 560.03C315.249 560.102 307.621 561.866 300.638 565.198C278.909 575.687 263.425 602.283 246.982 630.419C237.801 646.894 227.669 662.82 216.637 678.117C187.962 716.174 149.107 745.347 104.558 762.269C60.0099 779.19 11.5837 783.169 -35.13 773.747C-81.8437 764.326 -124.94 741.887 -159.445 709.021C-193.95 676.156 -218.456 634.203 -230.134 588.007C-235.714 563.753 -239.787 539.177 -242.331 514.42C-250.864 444.372 -258.648 413.322 -284.831 402.043C-308.058 392.054 -337.321 404.831 -374.368 420.939C-407.003 435.173 -440.678 449.866 -479.057 451.988C-560.394 456.484 -622.875 403.167 -678.029 356.259C-728.521 313.223 -772.062 276.138 -818.1 285.212C-835.167 288.583 -855.564 298.864 -875.045 308.769C-917.337 330.163 -975.197 359.464 -1031.47 324.586C-1082.63 292.87 -1087.88 235.558 -1092.12 189.774C-1093.21 177.954 -1094.21 167.049 -1095.83 157.31C-1104.9 102.536 -1148.07 49.5936 -1211.26 15.7971C-1251.05 -5.51303 -1285.48 -56.957 -1321.94 -111.439C-1356.86 -163.549 -1395.91 -219.655 -1417.68 -223.609L-1418.47 -219.447C-1396.74 -215.284 -1348.66 -143.529 -1325.56 -109.025C-1288.81 -54.1267 -1254.09 -2.22495 -1213.17 19.5846C-1151.11 52.8817 -1108.77 104.617 -1099.87 158.142C-1098.28 167.756 -1097.29 178.578 -1096.24 190.065C-1092.08 237.181 -1086.55 295.534 -1033.81 328.29C-975.53 364.376 -916.462 334.491 -873.296 312.64C-853.94 302.859 -833.918 292.745 -817.434 289.457C-773.269 280.758 -730.519 317.219 -680.985 359.464C-625.081 407.121 -561.851 461.062 -478.932 456.442C-439.846 454.278 -405.795 439.419 -372.869 425.059C-336.696 409.327 -308.183 396.882 -286.621 406.163C-262.311 416.569 -254.902 446.827 -246.618 515.086C-243.999 539.951 -239.885 564.636 -234.297 589.006C-222.021 635.883 -196.951 678.423 -161.887 711.873C-126.823 745.323 -83.1478 768.365 -35.741 778.424C-19.7875 781.613 -3.55769 783.216 12.7115 783.211C92.8414 783.211 172.222 745.086 220.55 680.406C231.666 664.985 241.882 648.934 251.145 632.334C267.254 604.739 282.448 578.684 303.011 568.736C309.505 565.646 316.599 564.018 323.791 563.968C330.984 563.917 338.099 565.446 344.637 568.445C379.436 582.263 416.525 625.508 434.84 673.58C440.376 688.189 445.538 703.298 450.991 719.364C476.924 795.323 506.27 881.437 587.108 924.474C612.791 938.167 638.849 944.618 664.074 950.861C687.301 956.605 709.238 962.058 725.014 972.505C768.472 1001.22 771.053 1061.2 774.383 1137.16C776.256 1180.82 778.254 1225.98 789.535 1268.85C811.097 1350.51 875.534 1420.1 961.949 1454.98C998.642 1469.89 1037.85 1477.64 1077.46 1477.79Z" fill="#F7FBFF"/>
<path d="M1077.46 1500.85C1130.04 1501.3 1181.74 1487.34 1226.94 1460.47C1246.57 1448.12 1265.38 1434.51 1283.26 1419.73C1304.86 1402.58 1325.18 1386.43 1344.66 1379.48C1356.19 1375.32 1472.41 1344.18 1600.49 1314.51C1687.07 1294.45 1754.88 1280.54 1802.04 1273.22L1801.38 1269.06C1754.13 1276.42 1686.24 1290.32 1599.53 1310.43C1471.33 1340.15 1354.86 1371.36 1343.24 1375.52C1323.14 1382.72 1302.57 1399.04 1280.8 1416.31C1263.01 1431.02 1244.3 1444.57 1224.78 1456.89C1147.52 1503.72 1046.57 1509.54 954.706 1472.42C862.838 1435.29 794.238 1361.04 771.219 1273.72C759.397 1228.89 757.399 1182.69 755.443 1138.07C752.238 1064.65 749.948 1011.63 714.483 988.237C701.412 979.58 680.974 974.544 659.329 969.175C633.021 962.64 605.839 955.898 578.075 941.122C490.66 894.631 458.775 800.858 433.05 725.524C427.597 709.583 422.519 694.641 417.107 680.406C400.79 637.578 367.156 597.871 337.518 586.009C324.448 580.806 316.706 583.137 311.128 585.759C295.684 593.21 281.24 617.974 267.296 641.948C257.685 659.198 247.081 675.875 235.535 691.894C184.668 759.945 99.21 802.232 12.5032 802.19C-4.95404 802.212 -22.3702 800.498 -39.4877 797.071C-141.596 776.551 -227.221 694.89 -252.488 593.834C-258.254 568.65 -262.425 543.127 -264.975 517.417C-273.009 451.447 -279.752 429.471 -293.78 423.436C-307.808 417.401 -334.407 428.93 -365.044 442.291C-399.635 457.358 -435.225 472.882 -477.684 475.213C-481.305 475.421 -484.927 475.505 -488.507 475.505C-573.673 475.504 -639.775 419.108 -692.932 373.824C-738.72 334.741 -778.348 300.986 -813.647 307.937C-827.675 310.684 -846.49 320.423 -864.722 329.455C-909.178 351.931 -976.321 385.935 -1043.71 344.314C-1104.53 306.605 -1110.65 240.261 -1115.1 191.855C-1116.1 180.742 -1117.1 170.295 -1118.56 161.305C-1126.34 113.191 -1165.09 66.4086 -1222.08 35.7754C-1266.91 11.7599 -1302.88 -41.9732 -1340.96 -98.9112C-1383.34 -162.176 -1409.86 -195.681 -1422.05 -201.3L-1423.8 -197.512C-1416.02 -193.933 -1395.95 -173.497 -1344.42 -96.5804C-1306.04 -39.143 -1269.78 14.9647 -1224.04 39.5213C-1168.18 69.447 -1130.21 115.106 -1122.51 161.68C-1121.05 170.545 -1120.1 180.95 -1119.1 191.938C-1114.56 241.26 -1108.32 308.77 -1045.71 347.561C-976.529 390.389 -908.346 355.885 -862.89 332.868C-844.866 323.753 -826.301 314.388 -812.939 311.725C-779.638 305.148 -740.801 338.321 -695.804 376.696C-642.148 422.479 -575.38 479.375 -488.673 479.375C-485.01 479.375 -481.305 479.375 -477.642 479.084C-434.435 476.67 -398.553 461.02 -363.671 445.787C-333.783 432.759 -308.058 421.522 -295.612 426.891C-283.166 432.26 -276.922 454.944 -269.304 517.542C-266.72 543.426 -262.549 569.127 -256.817 594.5C-231.133 697.055 -144.219 779.964 -40.3618 800.775C-22.9833 804.25 -5.30285 805.993 12.4198 805.978C100.417 805.978 187.249 763.108 238.782 694.016C250.393 677.998 261.067 661.322 270.75 644.071C284.445 620.596 298.557 596.373 312.876 589.464C317.496 587.216 324.323 585.302 335.895 589.838C364.7 601.284 397.21 639.784 413.153 681.863C418.523 696.014 423.601 710.998 428.971 726.648C454.987 802.856 487.247 897.295 576.035 944.743C604.258 959.768 631.689 966.594 658.246 973.17C679.517 978.456 699.622 983.409 712.11 991.692C745.786 1013.96 748.075 1066.07 751.197 1138.24C753.153 1183.11 755.36 1229.52 767.098 1274.76C790.492 1363.37 860.007 1438.7 953.083 1476.29C992.582 1492.38 1034.81 1500.72 1077.46 1500.85Z" fill="#F7FBFF"/>
<path d="M91.509 1156.6C122.604 1156.6 156.487 1148.27 197.072 1130.33C211.267 1124.13 225.42 1117.22 239.115 1110.56C260.801 1099.55 283.03 1089.65 305.716 1080.89C357.124 1061.95 414.443 1054.67 460.481 1048.8C480.462 1046.26 501.15 1043.64 519.465 1034.31C535.741 1025.99 553.64 1009.13 555.014 986.365C556.096 968.259 546.272 952.235 537.822 941.955C531.504 934.603 524.734 927.653 517.551 921.144C513.18 916.982 508.643 912.82 504.438 908.366C468.599 870.907 451.407 820.212 434.798 771.016C421.27 731.184 407.284 690.021 383.39 655.225C372.651 639.617 362.286 629.295 350.797 622.802C335.895 614.478 318.454 613.105 305.3 619.431C289.274 627.089 281.074 643.571 273.165 659.512C272.166 661.51 271.208 663.674 270.209 665.381C255.338 694.281 234.863 719.933 209.977 740.84C204.644 745.091 199.086 749.051 193.326 752.702C174.345 765.189 152.824 779.34 155.655 804.646C156.757 811.999 158.598 819.222 161.149 826.206C163.48 832.581 165.222 839.157 166.353 845.851C166.81 849.139 166.935 852.552 167.102 855.882C166.872 863.698 168.409 871.466 171.597 878.607C177.467 889.553 189.122 894.298 200.403 898.918C209.477 902.622 218.843 906.41 224.962 913.444C237.45 927.47 232.246 950.362 219.842 962.89C208.686 974.128 191.37 980.829 168.351 982.785C160.941 983.409 153.282 983.576 145.914 983.742C134.058 983.749 122.218 984.625 110.49 986.364C89.0494 990.424 69.0467 1000.03 52.4751 1014.23C35.9035 1028.42 23.3417 1046.71 16.0413 1067.28C11.8787 1079.76 6.42565 1104.07 18.289 1124.51C28.8204 1142.65 51.5899 1154.14 80.9361 1156.01C84.2662 1156.47 87.8876 1156.6 91.509 1156.6ZM323.491 619.806C332.259 619.933 340.852 622.282 348.466 626.632C359.372 632.833 369.279 642.697 379.644 657.806C403.246 692.102 417.107 733.016 430.552 772.556C447.203 822.044 464.686 873.155 501.316 911.28C505.479 915.733 510.183 920.062 514.595 924.224C521.642 930.605 528.287 937.416 534.492 944.618C542.443 954.274 551.767 969.341 550.726 986.24C549.478 1007.26 532.702 1022.99 517.426 1030.73C499.735 1039.72 479.421 1042.3 459.774 1044.8C413.527 1050.67 355.959 1057.99 304.134 1077.1C281.367 1085.92 259.055 1095.88 237.283 1106.94C223.63 1113.6 209.519 1120.47 195.407 1126.67C150.743 1146.23 114.362 1154.35 80.9777 1152.23C67.7823 1151.35 35.647 1146.81 21.6607 1122.76C10.6299 1103.74 15.7499 1080.89 19.7876 1068.94C26.8276 1049.08 38.9548 1031.41 54.9584 1017.71C70.9621 1004 90.2824 994.726 110.99 990.818C122.525 989.107 134.17 988.245 145.831 988.237C153.24 988.237 160.941 987.904 168.517 987.238C192.535 985.199 210.726 978.123 222.631 966.136C236.326 952.277 241.737 926.804 227.917 911.03C221.174 903.288 211.267 899.251 201.818 895.38C190.745 890.885 180.256 886.598 175.094 876.984C172.167 870.446 170.744 863.334 170.931 856.173C170.931 852.76 170.598 849.222 170.141 845.768C168.98 838.819 167.183 831.992 164.771 825.373C162.313 818.632 160.542 811.66 159.484 804.563C156.903 781.754 176.384 768.935 195.283 756.532C201.196 752.82 206.894 748.777 212.349 744.42C237.658 723.088 258.46 696.926 273.539 667.462V667.462C274.538 665.547 275.537 663.55 276.495 661.593C284.112 646.277 292.021 630.461 306.715 623.385C311.968 620.949 317.701 619.725 323.491 619.806V619.806Z" fill="#F7FBFF"/>
<path d="M126.267 1130.87C129.326 1130.88 132.384 1130.71 135.425 1130.37C160.816 1127.38 183.877 1115.22 206.189 1103.44L217.178 1097.74C287.697 1061.61 364.702 1039.88 443.706 1033.81L449.409 1033.4C467.391 1032.15 485.957 1030.82 502.357 1022.78C520.298 1014.04 535.991 994.148 531.287 973.087C527.791 957.521 514.887 947.282 502.399 937.376C499.901 935.378 497.404 933.422 495.031 931.424C459.857 901.998 441.667 858.42 429.72 823.708C425.557 811.763 421.769 799.401 418.065 787.456C409.198 758.987 400.041 729.519 386.262 702.465C380.06 690.229 369.987 672.581 354.294 660.386C343.596 652.062 325.53 643.405 309.837 646.485C297.35 648.899 292.771 658.971 288.4 668.253L287.026 671.249C273.655 700.625 252.146 725.555 225.045 743.088C222.215 744.878 219.259 746.626 216.304 748.374C204.149 755.574 191.578 763.024 184.085 775.303C175.136 789.995 175.76 807.434 177.092 827.08C178.091 840.357 179.298 856.88 188.539 869.242C194.522 876.355 201.725 882.345 209.81 886.931C214.934 890.055 219.805 893.576 224.379 897.461C229.779 902.787 234.071 909.13 237.007 916.123C239.943 923.117 241.464 930.622 241.483 938.207C241.503 945.791 240.02 953.304 237.12 960.313C234.22 967.321 229.96 973.685 224.587 979.039C207.521 994.522 183.211 997.602 159.692 1000.6C153.698 1001.35 147.496 1002.14 141.544 1003.1C115.111 1007.26 95.2139 1016.04 80.728 1029.44C62.6624 1046.09 54.92 1071.06 61.4969 1091.29C70.1551 1117.93 99.6262 1130.87 126.267 1130.87ZM316.664 649.981C329.443 649.981 343.096 656.932 351.755 663.633C363.202 672.581 372.984 685.484 382.558 704.338C396.169 731.101 405.286 760.402 414.11 788.705C417.815 800.65 421.644 813.053 425.807 825.082C437.92 860.293 456.402 904.537 492.409 934.629C494.823 936.627 497.32 938.791 499.86 940.622C511.765 950.071 524.086 959.852 527.25 973.92C531.412 992.649 516.635 1011.13 500.567 1018.95C484.5 1026.78 466.725 1027.9 449.159 1029.15L443.457 1029.57C363.867 1035.7 286.294 1057.62 215.263 1094.04L204.274 1099.78C182.295 1111.35 159.526 1123.34 134.967 1126.21C107.951 1129.33 74.4426 1117.89 65.4514 1090C59.374 1071.23 66.6584 1048.13 83.5586 1032.48C97.42 1019.7 116.61 1011.42 142.251 1007.22C148.12 1006.26 154.239 1005.47 160.192 1004.72C184.377 1001.64 209.352 998.476 227.376 982.119C233.182 976.377 237.788 969.537 240.925 961.998C244.062 954.459 245.667 946.372 245.648 938.206C245.628 930.041 243.985 921.961 240.812 914.437C237.639 906.913 233.001 900.096 227.168 894.381C222.441 890.324 217.387 886.662 212.058 883.435C204.395 879.125 197.56 873.488 191.869 866.786C183.544 855.34 182.17 839.483 181.255 826.747C179.839 807.851 179.34 791.119 187.665 777.467C194.575 766.063 206.688 758.904 218.427 751.953C221.424 750.205 224.379 748.457 227.251 746.626C255.023 728.67 277.067 703.133 290.773 673.039L292.188 670.001C296.351 660.636 300.18 652.603 310.628 650.564C312.615 650.162 314.637 649.967 316.664 649.981V649.981Z" fill="#F7FBFF"/>
<path d="M148.662 1103.32C151.333 1103.32 154.001 1103.17 156.654 1102.86C178.175 1100.28 197.697 1089.83 216.554 1079.68L225.961 1074.68C292.606 1039.88 366.413 1021.01 441.584 1019.54L445.247 1019.54C456.355 1019.9 467.457 1018.66 478.215 1015.87C492.076 1011.71 502.233 1002.31 505.396 990.901C510.766 971.714 496.488 954.483 481.42 938.5C442.375 897.087 414.818 853.301 399.583 808.392C397.71 802.815 395.962 797.196 394.255 791.743C390.021 775.731 383.901 760.279 376.023 745.71C365.408 727.855 345.303 709.25 320.369 710.707C306.299 711.539 293.603 718.781 282.406 725.149L228.292 756.074C191.162 777.259 177.259 806.977 190.163 837.652C196.823 853.551 209.228 865.996 221.258 878.024L221.965 878.773C234.994 891.842 246.233 903.746 251.728 919.188C261.01 945.076 249.23 977.915 224.921 994.106C211.85 1002.72 196.157 1006.84 180.964 1010.75L171.889 1013.21C154.073 1018.12 134.134 1025.28 121.48 1041.05C108.826 1056.83 106.869 1082.38 122.979 1095.58C130.409 1101.01 139.469 1103.74 148.662 1103.32ZM323.033 714.661C344.97 714.661 363.244 732.183 372.443 747.666C380.147 761.947 386.128 777.092 390.259 792.784C392.007 798.486 393.755 804.146 395.629 809.765C411.113 855.257 438.961 899.542 478.381 941.372C492.659 956.522 506.187 972.713 501.4 989.819C498.112 1001.51 486.623 1008.88 477.007 1011.88C466.62 1014.51 455.915 1015.67 445.205 1015.33L441.542 1015.33C365.718 1016.8 291.269 1035.84 224.046 1070.94L214.597 1075.98C196.074 1085.92 176.926 1096.2 156.321 1098.66C147.288 1099.74 134.676 1099.45 125.601 1092.04C111.407 1080.43 113.738 1057.08 124.727 1043.39C136.674 1028.53 155.822 1021.66 173.013 1016.91L182.046 1014.5C197.531 1010.34 213.557 1006.18 227.21 997.228C253.518 979.913 265.714 945.659 255.641 917.564C249.855 901.499 238.324 889.054 224.921 875.61L224.171 874.902C212.475 863.124 200.361 850.97 193.993 835.862C176.968 795.323 213.765 768.935 230.374 759.487L284.487 728.562C295.269 722.402 307.507 715.451 320.619 714.661L323.033 714.661Z" fill="#F7FBFF"/>
<path d="M216.054 1060.7C216.97 1060.7 217.844 1060.7 218.718 1060.7C227.26 1059.36 235.484 1056.47 242.986 1052.17L244.651 1051.34C291.706 1028.23 342.793 1014.46 395.087 1010.8L401.706 1010.38C413.414 1010.07 425.054 1008.5 436.422 1005.68C451.99 1001.18 464.061 991.9 469.723 980.288C480.795 957.105 465.56 931.507 458.317 921.56C454.154 915.816 449.576 910.322 445.08 904.911C437.443 895.843 430.34 886.337 423.809 876.443L417.815 866.662L380.934 798.86C374.274 786.79 367.364 774.345 356.833 764.731C341.057 750.33 316.831 743.005 288.816 744.17C271.35 744.391 254.202 748.878 238.865 757.239C231.147 761.484 224.387 767.275 219.008 774.25C213.63 781.226 209.747 789.235 207.604 797.778C204.024 814.011 208.062 832.865 219.218 852.385C224.34 860.987 229.898 869.322 235.868 877.358C240.78 884.226 245.858 891.301 250.271 898.585C261.593 917.315 266.213 934.546 264.09 949.862C261.177 970.673 246.15 989.528 218.302 1007.76L216.345 1009.01C209.682 1012.82 203.68 1017.68 198.571 1023.41C195.571 1026.78 193.556 1030.91 192.748 1035.36C191.941 1039.8 192.371 1044.37 193.992 1048.59C197.822 1057.08 207.646 1060.7 216.054 1060.7ZM427.555 888.305C432.093 894.881 436.796 901.499 441.875 907.534C446.287 912.778 450.866 918.272 454.904 923.891C461.606 933.214 476.05 957.188 465.935 978.373C460.856 988.945 449.7 997.352 435.298 1001.56C424.227 1004.28 412.895 1005.8 401.498 1006.09L394.838 1006.51C342.004 1010.22 290.392 1024.14 242.861 1047.51L241.155 1048.34C234.119 1052.47 226.389 1055.29 218.343 1056.66C210.851 1057.37 201.194 1054.62 197.53 1046.96C193.867 1039.31 197.53 1031.15 201.693 1026.15C206.487 1020.79 212.108 1016.22 218.343 1012.63L220.3 1011.38C249.438 992.483 264.965 972.588 268.086 950.57C270.376 934.296 265.506 916.108 253.684 896.462C249.188 889.012 244.068 881.853 239.115 874.944C233.495 867.036 227.668 858.837 222.797 850.346C215.388 837.36 207.437 817.84 211.6 798.694C213.626 790.709 217.278 783.227 222.328 776.717C227.377 770.208 233.716 764.809 240.946 760.86C255.648 752.863 272.081 748.576 288.816 748.374C315.79 747.25 338.767 754.201 353.836 767.853C363.868 777.009 370.486 789.163 377.147 800.9L422.102 880.688L427.555 888.305Z" fill="#F7FBFF"/>
<path d="M300.888 1009.05C307.416 1008.9 313.926 1008.28 320.369 1007.22L369.279 1000.22C380.393 998.642 392.964 996.811 403.412 990.318C417.69 981.37 427.014 963.597 428.388 942.703C430.011 917.106 420.604 892.758 411.238 871.947C400.407 847.344 386.655 824.132 370.278 802.814L367.656 799.443C362.702 792.867 357.083 785.458 349.382 782.212C338.704 778.476 327.316 777.224 316.081 778.549C301.852 779.745 288.254 784.956 276.87 793.574V793.574C254.516 810.764 244.235 841.938 252.394 867.785C255.436 876.272 259.356 884.419 264.09 892.092C268.767 899.555 272.606 907.511 275.538 915.816C279.662 929.374 278.866 943.952 273.29 956.979C272.402 958.894 271.486 960.809 270.542 962.723C266.874 968.748 264.81 975.612 264.548 982.66C265.089 995.438 276.495 1004.39 286.86 1007.34C291.438 1008.54 296.156 1009.11 300.888 1009.05V1009.05ZM325.447 782.212C333.069 782.021 340.657 783.293 347.8 785.958C354.46 788.788 359.747 795.739 364.451 801.857C365.366 803.064 366.241 804.229 367.115 805.312C383.311 826.361 396.896 849.295 407.575 873.612C416.733 893.798 425.932 917.772 424.225 942.454C423.018 961.974 414.402 978.539 401.248 986.78C391.549 992.815 379.436 994.564 368.738 996.104L319.703 1003.1C309.629 1004.51 298.182 1006.18 287.859 1003.1C278.909 1000.6 269.044 992.982 268.586 982.285C268.926 975.941 270.828 969.779 274.122 964.347C275.121 962.39 276.079 960.434 276.953 958.436C282.956 944.509 283.812 928.901 279.367 914.401C276.358 905.793 272.407 897.544 267.587 889.803C262.984 882.391 259.189 874.507 256.265 866.287C248.606 842.105 258.304 812.803 279.284 796.654C290.058 788.522 302.919 783.615 316.373 782.503C318.787 782.42 321.95 782.212 325.447 782.212V782.212Z" fill="#F7FBFF"/>
<path d="M367.864 986.406C376.284 986.795 384.609 984.491 391.632 979.83C400.332 973.587 405.91 962.848 408.616 946.991C413.712 915.804 407.512 883.822 391.133 856.797L387.345 848.681C384.576 843.485 381.087 838.707 376.98 834.488C369.324 824.847 358.702 818.001 346.759 815.009C338.101 813.615 329.276 813.615 320.618 815.009C317.122 815.426 313.542 815.842 310.045 816.05L306.174 816.258C300.015 816.099 293.887 817.175 288.15 819.421C276.079 825.165 271.5 839.441 272.332 851.095C273.165 862.749 278.201 873.321 283.113 883.643L283.696 884.933C288.816 895.713 293.395 906.327 293.27 917.439C293.136 920.942 292.775 924.431 292.188 927.886C291.221 932.861 290.899 937.939 291.23 942.995C292.23 949.36 294.704 955.404 298.455 960.644C302.206 965.883 307.13 970.173 312.834 973.17C323.909 978.883 335.898 982.615 348.258 984.2C354.717 985.5 361.277 986.238 367.864 986.406V986.406ZM394.921 871.448C406.264 894.688 409.643 921.015 404.536 946.366C401.997 961.059 397.002 970.964 389.218 976.5C378.437 984.242 363.535 982.91 349.007 980.329C337.116 978.833 325.579 975.269 314.916 969.799C309.776 967.147 305.332 963.324 301.941 958.639C298.55 953.954 296.307 948.539 295.393 942.828C295.083 938.119 295.391 933.39 296.309 928.76C296.897 925.109 297.273 921.426 297.433 917.731C297.433 905.744 292.812 894.631 287.484 883.393L286.86 882.103C282.156 872.155 277.286 861.875 276.495 851.054C275.787 841.148 279.7 828.287 289.94 823.459C295.163 821.43 300.74 820.467 306.341 820.628L310.295 820.628C313.916 820.42 317.538 819.962 321.076 819.588C329.332 818.149 337.765 818.051 346.052 819.296C357.083 822.133 366.88 828.507 373.941 837.443C381.067 846.591 387.154 856.502 392.09 866.994L394.921 871.448Z" fill="#F7FBFF"/>
<path d="M221.465 2254.48C325.53 2224.02 382.974 2119.05 402.205 2030.98C418.855 1954.18 415.692 1874.06 412.528 1796.56C411.654 1775.34 410.78 1753.4 410.322 1731.89C408.407 1644.23 413.569 1532.35 470.763 1444.45C511.782 1381.86 575.021 1337.16 647.715 1319.38C651.878 1318.42 655.707 1317.5 659.786 1316.63C682.389 1311.59 705.575 1306.39 722.225 1289.91C743.038 1268.68 745.286 1236.22 745.619 1204.75C746.119 1161.51 746.66 1112.52 728.969 1069.36C712.818 1029.61 674.855 989.694 625.945 989.694L625.154 989.694C601.802 989.902 579.365 999.475 559.51 1007.97L222.714 1151.73C186.833 1167 149.786 1182.86 110.324 1185.23C76.2325 1187.23 31.2347 1176.91 7.46634 1142.24C-16.3021 1107.57 -10.8074 1055.46 19.5795 1020.24C47.7187 987.571 93.9235 968.842 146.414 968.842L147.621 968.842C153.284 968.981 158.925 968.093 164.271 966.22C169.111 964.737 173.494 962.05 177.011 958.41C180.527 954.77 183.062 950.296 184.377 945.409C188.831 928.095 178.507 906.035 166.269 891.801L165.811 891.26C146.044 868.51 121.868 850.005 94.7445 836.863C67.6212 823.722 38.1142 816.216 8.00753 814.801C-93.9344 810.015 -170.11 824.915 -231.799 861.709C-272.426 885.932 -306.393 919.978 -339.277 953.275C-371.038 985.241 -403.923 1018.33 -442.593 1042.14C-529.217 1095.5 -651.056 1103.57 -776.891 1064.28C-858.02 1038.93 -934.529 998.143 -1008.58 958.728C-1035.18 944.535 -1062.69 929.843 -1090.08 916.108C-1179.96 870.948 -1299.01 820.129 -1423.09 827.954C-1510.26 833.489 -1594.51 869.034 -1666.69 930.717C-1735.95 989.841 -1786.77 1067.6 -1813.13 1154.76L-1808.96 1155.97C-1756.97 979.205 -1594.51 843.02 -1422.68 832.116C-1299.75 824.333 -1181.25 874.902 -1092 919.812C-1064.69 933.547 -1037.18 948.198 -1010.58 962.39C-936.36 1001.93 -859.643 1042.8 -778.181 1068.23C-651.181 1107.9 -528.093 1099.66 -440.47 1045.67C-401.342 1021.58 -368.333 988.362 -336.406 956.231C-303.729 923.35 -269.804 889.345 -229.76 865.371C-168.819 828.994 -93.3099 814.302 7.71624 819.047C37.2505 820.425 66.199 827.774 92.8134 840.65C119.428 853.527 143.156 871.664 162.565 893.965L163.023 894.506C174.553 907.908 184.335 928.511 180.256 944.452C179.089 948.684 176.871 952.552 173.806 955.696C170.742 958.84 166.932 961.157 162.731 962.432C157.738 964.136 152.478 964.926 147.205 964.763C93.0909 964.43 45.3877 983.826 16.2912 1017.58C-15.2613 1054.21 -20.5894 1108.81 3.80336 1144.65C28.1962 1180.49 75.1086 1191.56 110.324 1189.43C150.66 1187.02 188.081 1171.08 224.254 1155.64L561.133 1011.8C580.572 1003.47 602.759 994.064 625.154 993.856C672.316 993.565 709.363 1032.27 725.056 1070.94C742.331 1113.31 741.706 1161.88 741.29 1204.71C740.957 1235.3 738.959 1266.85 719.103 1286.95C703.66 1302.6 680.849 1307.76 658.829 1312.55L646.716 1315.34C572.994 1333.38 508.854 1378.7 467.225 1442.16C409.448 1531.02 404.203 1643.73 406.118 1731.97C406.576 1753.53 407.45 1775.5 408.324 1796.73C411.488 1873.98 414.735 1953.81 398.084 2030.1C379.103 2117.01 322.45 2220.56 220.258 2250.69L221.465 2254.48Z" fill="#F7FBFF"/>
<path d="M150.743 863.082C151.716 863.086 152.68 862.887 153.573 862.499C155.425 861.332 156.838 859.583 157.591 857.527C158.345 855.472 158.395 853.224 157.736 851.137C156.647 846.734 154.892 842.524 152.533 838.65C151.492 836.777 150.493 834.904 149.619 832.948C145.411 823.493 144.876 812.809 148.12 802.981L148.745 801.15C149.705 798.823 150.322 796.37 150.576 793.866C150.772 792.178 150.517 790.468 149.837 788.911C149.157 787.354 148.076 786.004 146.705 785C145.323 784.133 143.734 783.649 142.103 783.598C140.472 783.546 138.856 783.93 137.422 784.709C134.82 786.088 132.424 787.825 130.304 789.87C128.811 791.197 127.24 792.434 125.601 793.574C118.262 797.235 110.234 799.306 102.04 799.651C99.2514 799.984 96.5042 800.317 93.9234 800.733C89.4401 801.186 85.1083 802.606 81.2274 804.895C79.0532 806.214 77.3439 808.177 76.3368 810.512C75.3297 812.846 75.075 815.437 75.608 817.923C77.5228 824.457 85.1403 826.455 90.1771 827.746C109.459 832.876 126.957 843.215 140.753 857.63C143.267 860.653 146.84 862.603 150.743 863.082V863.082ZM142.168 787.581C143.012 787.571 143.84 787.818 144.541 788.289C145.302 788.888 145.895 789.675 146.26 790.572C146.625 791.47 146.75 792.447 146.622 793.408C146.346 795.522 145.8 797.592 144.998 799.568C144.749 800.192 144.54 800.858 144.332 801.483C140.758 812.308 141.352 824.077 145.997 834.488C146.913 836.528 147.954 838.65 149.036 840.44C151.178 844.018 152.79 847.887 153.823 851.928C154.364 854.633 153.823 857.796 151.867 858.67C149.91 859.544 147.454 858.212 143.916 854.508C129.652 839.482 111.471 828.742 91.4258 823.5C85.9312 822.043 80.9361 820.42 79.7706 816.508C79.5367 814.885 79.7871 813.229 80.4906 811.749C81.1941 810.268 82.3193 809.027 83.725 808.184C87.1221 806.286 90.8803 805.123 94.7558 804.771V804.771C97.2534 804.354 99.9175 804.021 102.665 803.688C110.99 802.69 120.689 801.566 127.932 796.987C129.775 795.741 131.515 794.349 133.135 792.825C135.018 791.058 137.116 789.533 139.379 788.289C140.245 787.85 141.197 787.608 142.168 787.581V787.581Z" fill="#F7FBFF"/>
<path d="M136.881 839.774C137.24 839.835 137.605 839.835 137.964 839.774C138.631 839.647 139.252 839.345 139.764 838.899C140.277 838.453 140.661 837.879 140.878 837.235C141.668 834.821 139.587 832.282 138.13 830.492C137.839 830.118 137.589 829.868 137.464 829.66C135.963 826.69 135.165 823.415 135.133 820.087L135.133 819.296C134.509 812.387 132.344 808.059 128.431 806.019C124.316 804.462 119.752 804.596 115.735 806.394L106.994 809.182C105.582 809.508 104.321 810.3 103.414 811.43C102.78 812.56 102.55 813.873 102.762 815.152C102.974 816.43 103.615 817.598 104.58 818.464C107.36 821.169 110.74 823.18 114.445 824.332L116.943 825.331C122.952 827.958 128.247 831.982 132.386 837.069C132.902 837.811 133.569 838.436 134.344 838.902C135.119 839.369 135.984 839.666 136.881 839.774V839.774ZM130.929 819.504L130.929 820.254C130.947 824.255 131.963 828.189 133.884 831.7C134.157 832.139 134.463 832.556 134.8 832.948C135.475 833.722 136.074 834.558 136.59 835.445C136.172 835.116 135.795 834.739 135.466 834.322C130.937 828.677 125.091 824.232 118.441 821.377C117.609 821.003 116.734 820.628 115.819 820.295C112.716 819.354 109.868 817.717 107.493 815.509C106.786 814.718 106.536 813.844 106.703 813.636C107.111 813.324 107.578 813.097 108.076 812.97L116.818 810.223C119.797 808.806 123.203 808.568 126.35 809.557C128.889 810.889 130.513 814.135 130.804 819.504L130.929 819.504Z" fill="#F7FBFF"/>
</svg>
